<svg width="53" height="60" viewBox="0 0 53 60" fill="none" xmlns="http://www.w3.org/2000/svg">
<path d="M28.7025 18.0759L15.3063 24.8901L11.4089 26.8735L11.8932 31.704H34.0007L33.1595 40.221L26.5126 41.924L20.5525 40.221L19.8656 35.1111H12.225L13.2186 45.3312L26.5126 48.7379L39.8065 45.3312L41.7938 24.865H29.8235L42.4305 18.4071L43.1175 11.2379L9.90765 11.2366L10.5695 18.0508L28.7025 18.0759Z" fill="#848484"/>
<path d="M0 0L4.81392 54.0003L26.4623 60L48.1609 54.0003L53 0H0ZM44.1111 49.4993L26.4874 54.3803L8.91404 49.4993L4.96639 5.61831H48.0336L44.1111 49.4993Z" fill="#848484"/>
</svg>
