<svg width="28" height="28" viewBox="0 0 28 28" fill="none" xmlns="http://www.w3.org/2000/svg">
<path d="M16.6304 20.7558C17.5022 20.5268 18.349 20.3723 19.1481 20.0807C20.9567 19.4208 22.1552 18.138 22.6163 16.1987C23.0225 14.49 23.1659 12.7829 22.3974 11.128C22.2361 10.7807 22.0451 10.4319 21.7988 10.1464C21.5534 9.86193 21.5302 9.6245 21.6383 9.27104C21.9563 8.23159 21.7776 7.21121 21.4453 6.20261C21.3517 5.91875 21.1543 5.85327 20.942 5.91756C20.2367 6.13118 19.5402 6.37594 18.844 6.61991C18.6947 6.67225 18.5383 6.74587 18.4237 6.85308C17.7863 7.44974 17.0765 7.34676 16.3153 7.17324C14.5514 6.77114 12.7843 6.87498 11.0357 7.29634C10.6679 7.38497 10.392 7.32381 10.0554 7.15063C9.20355 6.71225 8.33222 6.29882 7.43503 5.97273C6.78645 5.73702 6.6575 5.87138 6.4507 6.55326C6.15367 7.53268 6.11868 8.51094 6.41616 9.50113C6.45724 9.6379 6.41848 9.85955 6.33033 9.96842C5.20227 11.3616 4.89857 12.9737 5.15465 14.7124C5.27083 15.5012 5.42601 16.3004 5.69292 17.0462C6.3669 18.9295 7.8602 19.8534 9.65014 20.3578C10.2044 20.5139 10.7807 20.5876 11.2632 20.6826C11.0397 21.2791 10.8194 21.8935 10.5735 22.497C10.5325 22.5978 10.3908 22.6837 10.278 22.7213C8.68136 23.2536 7.46318 23.0446 6.54687 21.4986C6.08069 20.712 5.43818 20.1547 4.53822 19.9787C4.28665 19.9296 4.01818 19.9712 3.75746 19.9712L3.67629 20.1754C3.84778 20.3732 3.9857 20.628 4.19676 20.7586C4.97654 21.2409 5.43936 21.9749 5.75254 22.8039C6.21414 24.0257 7.10088 24.5987 8.32076 24.6757C9.02891 24.7205 9.74194 24.6839 10.5133 24.6839C10.5133 25.5837 10.5446 26.5189 10.5 27.4503C10.4778 27.9153 9.99478 28.1149 9.47721 27.9337C7.82207 27.3541 6.30866 26.5102 4.98317 25.3348C2.69566 23.3063 1.07936 20.8169 0.408927 17.7857C-0.613874 13.1614 0.267925 8.92547 3.21285 5.22159C5.37374 2.5038 8.17865 0.82226 11.5404 0.222165C17.1003 -0.770313 22.5987 1.60271 25.7478 6.53492C26.9059 8.34868 27.6504 10.332 27.8908 12.476C28.3334 16.4239 27.4404 20.0233 25.0304 23.186C23.3454 25.3974 21.2168 26.9695 18.6345 27.8993C17.9017 28.1631 17.498 27.8884 17.4951 27.1004C17.4909 25.9495 17.4929 24.7987 17.4942 23.6479C17.4954 22.5867 17.3844 21.5606 16.6304 20.7558Z" fill="#A15AFF"/>
</svg>
