<svg width="375" height="361" viewBox="0 0 375 361" fill="none" xmlns="http://www.w3.org/2000/svg">
<g opacity="0.1">
<path d="M40.5282 289.35L39.8047 288.85L64.8263 279.737L64.7365 280.532L40.5282 289.35Z" fill="white"/>
<path d="M300.701 193.822L358.809 172.657L359.296 173.242L301.023 194.467L300.701 193.822Z" fill="white"/>
<path d="M65.0976 280.401L65.1875 279.605L104.663 265.227L104.655 265.992L65.0976 280.401Z" fill="white"/>
<path d="M-0.628258 304.34L-1.0517 303.732L38.9867 289.148L39.7103 289.648L-0.628258 304.34Z" fill="white"/>
<path d="M300.695 194.587L231.126 219.927L231.41 219.06L300.372 193.942L300.695 194.587Z" fill="white"/>
<path d="M173.599 240.88L135.535 254.745L135.474 254.004L173.17 240.274L173.599 240.88Z" fill="white"/>
<path d="M105 265.867L105.008 265.101L134.136 254.492L134.197 255.232L105 265.867Z" fill="white"/>
<path d="M215.232 225.716L214.79 225.114L230.586 219.361L230.302 220.227L215.232 225.716Z" fill="white"/>
<path d="M173.85 240.026L198.706 230.973L199.693 231.376L174.279 240.633L173.85 240.026Z" fill="white"/>
<path d="M384.599 164.026L360.695 172.732L360.208 172.147L384.373 163.345C384.383 163.379 384.388 163.412 384.398 163.446C384.456 163.645 384.527 163.836 384.599 164.026Z" fill="white"/>
<path d="M201.696 230.646L200.709 230.243L214.448 225.239L214.89 225.84L201.696 230.646Z" fill="white"/>
<path d="M267.867 295.261L226.084 325.368L226.05 322.77L266.356 293.727L267.867 295.261Z" fill="white"/>
<path d="M308.864 265.72L278.335 287.718L276.344 286.531L303.069 267.273L308.864 265.72Z" fill="white"/>
<path d="M275.715 286.984L277.706 288.171L268.155 295.053L266.645 293.519L275.715 286.984Z" fill="white"/>
<path d="M225.405 325.858L211.061 336.194L209.55 334.66L225.37 323.261L225.405 325.858Z" fill="white"/>
<path d="M304.713 266.089L332.436 246.112L335.68 246.396L310.508 264.535L304.713 266.089Z" fill="white"/>
<path d="M346.884 235.701L387.145 206.69L388.509 208.329L348.791 236.949L346.884 235.701Z" fill="white"/>
<path d="M210.772 336.402L203.804 341.423L202.791 339.531L209.261 334.868L210.772 336.402Z" fill="white"/>
<path d="M176.791 360.887L173.152 360.887L175.635 359.098L180.9 357.926L176.791 360.887Z" fill="white"/>
<path d="M336.128 246.074L332.884 245.789L346.575 235.924L348.482 237.172L336.128 246.074Z" fill="white"/>
<path d="M185.338 354.729L180.072 355.901L202.506 339.735L203.519 341.628L185.338 354.729Z" fill="white"/>
<path d="M275.08 336.97L249.332 342.699L250.863 340.149L276.079 334.538L275.08 336.97Z" fill="white"/>
<path d="M324.076 323.858L325.514 325.748L275.492 336.878L276.49 334.446L324.076 323.858Z" fill="white"/>
<path d="M384.014 312.731L351.831 319.892L350.504 317.977L382.279 310.907L384.014 312.731Z" fill="white"/>
<path d="M38.7353 360.887L36.1839 360.887L22.8938 341.795L24.4415 340.354L38.7353 360.887Z" fill="white"/>
<path d="M351.095 320.055L326.265 325.58L324.827 323.691L349.768 318.141L351.095 320.055Z" fill="white"/>
<path d="M24.0346 339.769L22.487 341.211L-2.6632 305.082L-3.08684 304.473L-75.9082 199.862C-75.3798 199.355 -74.9246 198.777 -74.553 198.145L-1.05153 303.732L-0.628087 304.34L24.0346 339.769Z" fill="white"/>
<path d="M221.006 346.792L222.792 348.605L209.258 351.616L208.202 349.642L221.006 346.792Z" fill="white"/>
<path d="M225.696 347.959L223.196 348.515L221.411 346.702L225.667 345.755L225.696 347.959Z" fill="white"/>
<path d="M207.85 349.72L208.906 351.695L180.901 357.926L175.635 359.098L167.595 360.887L157.664 360.887L180.072 355.901L185.338 354.729L207.85 349.72Z" fill="white"/>
<path d="M226.351 345.603L248.991 340.566L247.46 343.116L226.38 347.807L226.351 345.603Z" fill="white"/>
<path d="M339.753 360.887L338.779 360.887L346.288 353.05L346.719 353.617L339.753 360.887Z" fill="white"/>
<path d="M384.466 313.207L384.951 313.716L363.253 336.362L362.844 335.772L384.466 313.207Z" fill="white"/>
<path d="M362.351 336.286L362.76 336.876L347.209 353.106L346.778 352.54L362.351 336.286Z" fill="white"/>
<path d="M253.228 279.89L260.54 277.93L261.4 278.443L253.807 280.479L253.228 279.89Z" fill="white"/>
<path d="M370.674 247.487L400.172 222.337L400.624 222.88L371.045 248.101C370.943 247.878 370.822 247.669 370.674 247.487Z" fill="white"/>
<path d="M138.783 310.569L138.844 311.297L122.96 315.554L122.857 314.839L138.783 310.569Z" fill="white"/>
<path d="M99.7737 324.591L67.9708 360.887L67.0377 360.887L99.2806 324.089C99.4343 324.269 99.5985 324.437 99.7737 324.591Z" fill="white"/>
<path d="M107.451 319.237C107.427 319.153 107.394 319.073 107.366 318.992L122.523 314.928L122.626 315.644L107.56 319.683C107.53 319.534 107.495 319.385 107.451 319.237Z" fill="white"/>
<path d="M224.908 288.225L170.818 302.725L169.959 302.212L224.898 287.484L224.908 288.225Z" fill="white"/>
<path d="M169.001 302.469L169.86 302.982L140.192 310.935L140.132 310.208L169.001 302.469Z" fill="white"/>
<path d="M365.94 249.675C365.96 249.84 365.987 250.005 366.035 250.168C366.056 250.24 366.091 250.303 366.117 250.372L308.863 265.72L303.068 267.273L262.358 278.186L261.498 277.673L304.712 266.089L310.507 264.535L365.94 249.675Z" fill="white"/>
<path d="M253.417 280.583L225.592 288.042L225.582 287.301L252.837 279.995L253.417 280.583Z" fill="white"/>
<path d="M368.992 248.953L366.843 248.765L366.116 248.289C366.407 247.518 367.005 246.883 367.819 246.619L367.673 246.713L368.992 248.953Z" fill="white"/>
<path d="M366.094 248.699L365.995 248.69C365.999 248.674 366.001 248.657 366.005 248.641L366.094 248.699Z" fill="white"/>
<path d="M370.442 251.415C370.155 251.691 369.814 251.912 369.418 252.041C368.06 252.482 366.633 251.736 366.117 250.372C366.091 250.303 366.056 250.24 366.035 250.168C365.987 250.005 365.96 249.84 365.94 249.675C365.915 249.464 365.908 249.253 365.927 249.046L366.733 249.117L367.042 249.319L367.141 249.153L369.217 249.335L370.442 251.415Z" fill="white"/>
<path d="M367.999 246.58C369.006 246.33 370.032 246.699 370.674 247.487C370.822 247.669 370.942 247.878 371.045 248.1C371.102 248.227 371.161 248.353 371.202 248.491C371.483 249.446 371.257 250.435 370.688 251.149L367.999 246.58Z" fill="white"/>
<path d="M68.1941 198.228L68.1612 198.406L77.2901 200.263C76.6082 203.605 74.2764 206.475 70.9439 207.557C66.0352 209.151 60.8248 206.266 59.3063 201.114C57.8545 196.189 60.3077 190.983 64.8146 189.141L68.0329 198.291L68.1941 198.228Z" fill="white"/>
<path d="M65.1374 189.017C65.2409 188.98 65.3395 188.934 65.4449 188.899C70.3536 187.306 75.564 190.19 77.0825 195.342C77.5339 196.873 77.6003 198.431 77.3531 199.908L68.3219 198.07L65.1374 189.017Z" fill="white"/>
<path d="M107.366 318.992C107.394 319.073 107.427 319.153 107.451 319.237C107.495 319.385 107.53 319.534 107.56 319.683C107.945 321.583 107.247 323.502 105.857 324.667L104.391 322.548L104.462 315.978C105.769 316.465 106.858 317.536 107.366 318.992Z" fill="white"/>
<path d="M104.053 322.058L102.959 320.476L102.681 320.688L104.046 322.663L104.043 322.959L104.253 322.962L105.583 324.886C105.193 325.167 104.756 325.392 104.28 325.547C102.662 326.072 100.983 325.653 99.7737 324.591C99.5985 324.437 99.4343 324.269 99.2806 324.089C98.8325 323.564 98.4792 322.936 98.2678 322.218C97.4834 319.557 98.9031 316.732 101.439 315.908C102.344 315.614 103.268 315.62 104.119 315.864L104.053 322.058Z" fill="white"/>
<path d="M105.472 205.813L105.505 205.636L103.362 205.2C103.555 204.47 104.083 203.854 104.824 203.613C105.981 203.237 107.21 203.917 107.568 205.132C107.926 206.347 107.278 207.637 106.12 208.012C105.954 208.066 105.786 208.093 105.619 208.105L105.644 205.815L105.472 205.813Z" fill="white"/>
<path d="M105.276 208.104C104.416 208.023 103.647 207.412 103.377 206.493C103.284 206.179 103.261 205.861 103.295 205.554L105.299 205.962L105.276 208.104Z" fill="white"/>
<path d="M226.553 360.887L225.866 360.887L225.744 351.602L226.44 352.309L226.553 360.887Z" fill="white"/>
<path d="M231.41 219.061L231.126 219.927L225.727 236.402L225.021 236.34L230.302 220.227L230.586 219.361L266.774 108.943C266.975 109.06 267.196 109.135 267.425 109.173L231.41 219.061Z" fill="white"/>
<path d="M224.587 263.842L224.291 241.417L224.981 241.699L225.272 263.796L224.587 263.842Z" fill="white"/>
<path d="M225.667 345.756L225.405 325.858L225.37 323.261L224.908 288.226L224.898 287.485L224.591 264.203L225.277 264.157L225.582 287.301L225.592 288.043L226.05 322.771L226.084 325.368L226.351 345.603L226.38 347.807L226.433 351.801L225.737 351.095L225.696 347.959L225.667 345.756Z" fill="white"/>
<path d="M131.516 206.252L135.474 254.004L135.535 254.745L140.132 310.208L140.192 310.935L144.332 360.887L142.954 360.887L138.844 311.297L138.784 310.569L134.197 255.232L134.136 254.492L130.133 206.194C130.577 206.306 131.045 206.329 131.516 206.252Z" fill="white"/>
<path d="M130.103 198.905L139.888 82.0108C140.321 82.1574 140.786 82.1995 141.256 82.1317L131.488 198.833C131.038 198.763 130.569 198.783 130.103 198.905Z" fill="white"/>
<path d="M388.285 205.869L389.649 207.508L401.239 221.427L401.691 221.971L414.185 236.976L418.562 238.035L417.582 239.278L413.66 238.328L413.443 238.276L400.624 222.88L400.172 222.337L388.509 208.329L387.145 206.69L359.296 173.242L358.809 172.657L328.056 135.722C328.513 135.538 328.874 135.201 329.095 134.778L360.208 172.147L360.695 172.732L388.285 205.869Z" fill="white"/>
<path d="M104.462 315.977L104.391 322.547L104.053 322.058L104.119 315.864L104.654 265.992L104.663 265.227L105.276 208.104L105.299 205.961L105.439 205.99L105.472 205.813L105.644 205.815L105.619 208.105L105.008 265.101L105 265.867L104.462 315.977Z" fill="white"/>
<path d="M104.043 322.959L104.047 322.662L104.253 322.962L104.043 322.959Z" fill="white"/>
<path d="M68.227 198.051L68.1941 198.228L68.033 198.291L64.8147 189.141L50.1919 147.57C50.197 147.568 50.2022 147.568 50.2074 147.567C50.3143 147.532 50.4097 147.478 50.5097 147.432L65.1373 189.018L68.3218 198.071L68.227 198.051Z" fill="white"/>
<path d="M105.472 205.813L105.439 205.99L105.299 205.961L103.294 205.554L77.2903 200.263L68.1613 198.406L68.1942 198.228L68.2271 198.051L68.3219 198.07L77.3531 199.908L103.362 205.2L105.505 205.636L105.472 205.813Z" fill="white"/>
<path d="M336.009 63.6753C336.064 63.7833 336.13 63.8797 336.195 63.9789L322.234 72.8179L322.199 72.4187L336.009 63.6753Z" fill="white"/>
<path d="M269.525 106.189C269.474 106.079 269.413 105.978 269.346 105.881L321.873 72.6253L321.907 73.0247L269.525 106.189Z" fill="white"/>
<path d="M283.748 121.028L325.478 133.047C325.439 133.16 325.409 133.276 325.388 133.395L283.658 121.376C283.698 121.263 283.727 121.147 283.748 121.028Z" fill="white"/>
<path d="M366.094 248.699L366.004 248.64L348.482 237.172L346.575 235.923L311.07 212.686C311.138 212.589 311.205 212.49 311.258 212.384L346.884 235.701L348.79 236.949L366.116 248.289L366.843 248.764L366.094 248.699Z" fill="white"/>
<path d="M366.734 249.117L367.141 249.153L367.042 249.319L366.734 249.117Z" fill="white"/>
<path d="M300.695 194.587L300.373 193.942L283.682 160.526C283.79 160.479 283.891 160.425 283.987 160.361L300.701 193.822L301.023 194.467L308.307 209.051C308.2 209.099 308.098 209.152 308.001 209.215L300.695 194.587Z" fill="white"/>
<path d="M223.335 236.725C223.239 236.791 223.145 236.861 223.061 236.941L214.89 225.84L214.448 225.239L185.985 186.568C186.083 186.503 186.174 186.43 186.257 186.348L214.79 225.114L215.232 225.716L223.335 236.725Z" fill="white"/>
<path d="M309.898 213.572C308.682 213.967 307.391 213.253 307.014 211.976C306.698 210.903 307.134 209.783 308.001 209.215C308.098 209.152 308.2 209.099 308.307 209.051C308.383 209.016 308.455 208.975 308.535 208.949C309.752 208.554 311.043 209.269 311.419 210.546C311.607 211.182 311.531 211.838 311.258 212.384C311.205 212.491 311.138 212.589 311.071 212.686C310.788 213.091 310.39 213.413 309.898 213.572Z" fill="white"/>
<path d="M130.752 201.685L130.254 203.029L133.986 204.552C133.547 205.282 132.869 205.858 132.022 206.133C131.854 206.188 131.685 206.224 131.516 206.252C131.045 206.33 130.577 206.307 130.133 206.194C128.945 205.895 127.933 204.969 127.546 203.655C126.962 201.674 128.019 199.57 129.907 198.957C129.972 198.936 130.038 198.922 130.103 198.905C130.569 198.783 131.037 198.763 131.488 198.834C132.807 199.039 133.963 200.009 134.383 201.435C134.559 202.03 134.583 202.635 134.485 203.209L130.752 201.685Z" fill="white"/>
<path d="M223.917 236.424L223.903 236.604L225.946 236.783C226.337 237.079 226.647 237.5 226.801 238.021C227.177 239.297 226.496 240.652 225.28 241.047L225.529 240.376L222.322 239.066C222.215 238.26 222.503 237.469 223.061 236.941C223.145 236.861 223.239 236.791 223.335 236.725C223.513 236.601 223.703 236.494 223.917 236.424Z" fill="white"/>
<path d="M185.985 186.568C185.856 186.654 185.719 186.728 185.567 186.778C184.624 187.084 183.625 186.53 183.333 185.542C183.042 184.553 183.569 183.503 184.511 183.197C184.903 183.07 185.303 183.099 185.66 183.239L184.885 184.909L185.193 185.067L185.968 183.396C186.325 183.626 186.611 183.981 186.745 184.434C186.953 185.14 186.738 185.873 186.258 186.348C186.175 186.43 186.084 186.503 185.985 186.568Z" fill="white"/>
<path d="M335.792 63.1369C335.301 61.4701 336.19 59.701 337.778 59.1853C339.366 58.6697 341.051 59.6028 341.543 61.2696C342.034 62.9364 341.145 64.7056 339.557 65.2212C338.265 65.6405 336.921 65.0915 336.195 63.9793C336.13 63.8801 336.063 63.7837 336.009 63.6757C335.924 63.5054 335.848 63.3274 335.792 63.1369Z" fill="white"/>
<path d="M282.382 122.655C281.327 122.997 280.208 122.378 279.882 121.271C279.556 120.165 280.146 118.99 281.201 118.648C282.255 118.306 283.374 118.925 283.7 120.032C283.799 120.367 283.804 120.706 283.748 121.028C283.727 121.147 283.698 121.263 283.658 121.376C283.449 121.966 282.999 122.455 282.382 122.655Z" fill="white"/>
<path d="M362.059 0.555593L364.151 1.46837C363.913 1.94799 363.501 2.33177 362.97 2.50416C361.916 2.84644 360.797 2.22695 360.471 1.12046C360.145 0.0140301 360.735 -1.16044 361.789 -1.50272C362.844 -1.84513 363.962 -1.22561 364.289 -0.119179C364.414 0.306235 364.402 0.74068 364.282 1.13505L362.19 0.222643L362.059 0.555593Z" fill="white"/>
<path d="M269.646 106.49C269.973 107.597 269.382 108.771 268.328 109.113C268.025 109.212 267.718 109.223 267.425 109.173C267.195 109.135 266.975 109.06 266.774 108.943C266.337 108.69 265.988 108.269 265.829 107.73C265.503 106.623 266.093 105.449 267.147 105.106C267.985 104.834 268.857 105.176 269.346 105.881C269.413 105.978 269.474 106.079 269.525 106.189C269.57 106.286 269.615 106.384 269.646 106.49Z" fill="white"/>
<path d="M207.638 135.868L206.565 138.181C206.157 137.925 205.83 137.523 205.679 137.009C205.353 135.902 205.943 134.728 206.997 134.385C208.051 134.043 209.17 134.663 209.496 135.769C209.822 136.875 209.232 138.05 208.178 138.392C207.732 138.537 207.278 138.501 206.874 138.338L207.947 136.026L207.638 135.868Z" fill="white"/>
<path d="M283.505 160.605C282.451 160.947 281.332 160.328 281.006 159.221C280.68 158.115 281.27 156.94 282.324 156.598C283.379 156.256 284.498 156.875 284.824 157.982C285.095 158.903 284.726 159.865 283.987 160.361C283.892 160.425 283.79 160.479 283.682 160.526C283.623 160.552 283.568 160.585 283.505 160.605Z" fill="white"/>
<path d="M328.056 135.722C328.015 135.738 327.978 135.762 327.935 135.775C326.881 136.118 325.762 135.498 325.436 134.392C325.337 134.057 325.331 133.718 325.388 133.395C325.409 133.276 325.438 133.16 325.478 133.047C325.686 132.457 326.137 131.969 326.754 131.768C326.834 131.743 326.914 131.733 326.994 131.717L327.174 133.789L327.515 133.755L327.336 131.684C328.192 131.681 328.987 132.249 329.253 133.152C329.42 133.717 329.345 134.298 329.094 134.778C328.874 135.201 328.512 135.538 328.056 135.722Z" fill="white"/>
<path d="M320.133 52.5515L320.39 55.518C319.534 55.5219 318.739 54.9534 318.473 54.0505C318.147 52.9439 318.737 51.7694 319.791 51.4271C320.845 51.0849 321.964 51.7043 322.29 52.8108C322.617 53.9173 322.026 55.0917 320.972 55.4342C320.892 55.46 320.812 55.47 320.732 55.4851L320.475 52.5183L320.133 52.5515Z" fill="white"/>
<path d="M50.1921 147.57C48.657 148.059 47.0321 147.156 46.5573 145.546C46.081 143.93 46.943 142.214 48.4827 141.714C50.0224 141.215 51.6566 142.119 52.133 143.735C52.5762 145.239 51.852 146.816 50.5099 147.432C50.4098 147.478 50.3144 147.532 50.2076 147.567C50.2024 147.568 50.1972 147.568 50.1921 147.57Z" fill="white"/>
<path d="M139.888 82.0104C138.958 81.6955 138.181 80.9303 137.87 79.8757C137.364 78.1565 138.281 76.3316 139.919 75.7998C141.557 75.268 143.295 76.2305 143.802 77.9497C144.309 79.6688 143.392 81.4936 141.754 82.0256C141.588 82.0792 141.422 82.1073 141.256 82.1313C140.786 82.1991 140.321 82.157 139.888 82.0104Z" fill="white"/>
<path d="M401.092 302.791L406.775 312.444L406.63 312.538L406.483 312.633L406.455 312.585L400.848 303.062L398.683 299.385L398.313 298.756L370.442 251.415L369.217 249.335L369.246 249.337L369.275 248.978L368.992 248.953L367.673 246.713L367.819 246.618L367.965 246.523L367.999 246.58L370.689 251.149L398.563 298.495L398.934 299.124L401.092 302.791Z" fill="white"/>
<path d="M336.128 246.074L365.995 248.69L366.094 248.699L366.843 248.764L368.992 248.953L369.275 248.978L369.246 249.337L369.217 249.335L367.141 249.153L366.733 249.117L365.927 249.046L335.68 246.396L332.436 246.112L225.946 236.783L223.903 236.604L223.917 236.424L223.932 236.244L225.021 236.34L225.727 236.401L332.884 245.789L336.128 246.074Z" fill="white"/>
<path d="M130.895 360.887L130.47 360.887L119.543 345.081L119.738 344.748L130.895 360.887Z" fill="white"/>
<path d="M104.046 322.663L102.681 320.688L102.959 320.476L104.053 322.058L104.391 322.548L105.857 324.667L119.52 344.433L119.325 344.766L105.583 324.886L104.253 322.962L104.046 322.663Z" fill="white"/>
<path d="M222.322 239.066L225.529 240.376L225.28 241.047L225.031 241.719L224.981 241.699L224.291 241.417L199.693 231.376L198.706 230.973L133.987 204.552L130.255 203.029L130.753 201.685L134.485 203.209L200.709 230.243L201.696 230.646L222.322 239.066Z" fill="white"/>
<path d="M185.193 185.066L184.885 184.909L185.659 183.238L206.565 138.181L207.639 135.868L207.947 136.026L206.874 138.338L185.968 183.396L185.193 185.066Z" fill="white"/>
<path d="M327.515 133.755L327.174 133.788L326.994 131.717L321.907 73.0246L321.873 72.6252L320.39 55.5177L320.133 52.5511L320.474 52.5179L320.731 55.4847L322.199 72.4188L322.234 72.8179L327.336 131.684L327.515 133.755Z" fill="white"/>
<path d="M400.208 16.805L400.142 16.9714L400.077 17.1379L398.24 16.337L364.152 1.46814L362.059 0.555355L362.19 0.222407L364.282 1.13482L398.371 16.0036L399.995 16.7121L400.208 16.805Z" fill="white"/>
<path d="M312.899 309.169L312.957 309.203L313.126 308.89L313.265 308.997L313.448 308.736L324.827 323.691L326.265 325.581L346.777 352.54L347.208 353.106L353.129 360.887L352.251 360.887L346.719 353.617L346.288 353.05L325.514 325.748L324.076 323.858L312.899 309.169Z" fill="white"/>
<path d="M275.715 286.984L261.4 278.443L260.54 277.93L238.144 264.568L237.757 264.175C237.87 264.021 237.957 263.847 238.01 263.66L261.498 277.673L262.358 278.186L276.344 286.53L278.334 287.718L313.181 308.509L312.988 308.783L313.127 308.89L312.957 309.203L312.9 309.169L277.706 288.171L275.715 286.984Z" fill="white"/>
<path d="M60.042 306.227C60.1718 306.43 60.321 306.614 60.4939 306.77L24.4416 340.354L22.8938 341.795L2.39857 360.887L1.36403 360.887L22.487 341.211L24.0346 339.769L60.042 306.227Z" fill="white"/>
<path d="M62.6489 302.068C62.5362 302.046 62.4236 302.029 62.3079 302.023L64.7369 280.532L64.8267 279.737L67.9673 251.948L68.0321 252.01L68.1484 251.878L68.2874 251.983L68.3138 251.945L65.1877 279.605L65.0977 280.401L62.6489 302.068Z" fill="white"/>
<path d="M124.32 336.237C124.413 336.308 124.509 336.374 124.611 336.428L119.738 344.748L119.543 345.081L110.286 360.887L109.884 360.887L119.325 344.766L119.52 344.433L124.32 336.237Z" fill="white"/>
<path d="M68.1479 251.878L68.0316 252.01L67.9669 251.948L32.9356 218.102C33.0186 218.018 33.1039 217.937 33.1758 217.844L68.1221 251.608L68.0089 251.772L68.1479 251.878Z" fill="white"/>
<path d="M68.1482 251.878L68.0092 251.772L68.1224 251.608L92.6164 216.016C92.703 216.096 92.7957 216.166 92.8946 216.227L68.3137 251.945L68.2872 251.983L68.1482 251.878Z" fill="white"/>
<path d="M235.074 263.49L225.277 264.157L224.591 264.203L194.13 266.277C194.132 266.158 194.127 266.038 194.11 265.917L224.587 263.842L225.272 263.796L235.05 263.13C235.044 263.249 235.053 263.369 235.074 263.49Z" fill="white"/>
<path d="M313.181 308.509L338.333 272.73C338.421 272.808 338.516 272.874 338.613 272.939L313.448 308.736L313.265 308.997L313.127 308.89L312.988 308.783L313.181 308.509Z" fill="white"/>
<path d="M189.713 315.092L202.791 339.531L203.804 341.423L208.202 349.642L209.258 351.616L214.219 360.887L213.825 360.887L208.906 351.695L207.85 349.72L203.519 341.628L202.506 339.735L189.451 315.338C189.546 315.263 189.632 315.181 189.713 315.092Z" fill="white"/>
<path d="M270.708 360.887L270.124 360.887L268.69 359.791C268.764 359.697 268.824 359.596 268.886 359.494L270.708 360.887Z" fill="white"/>
<path d="M275.08 336.97L276.079 334.538L284.293 314.537C284.416 314.551 284.542 314.547 284.669 314.529L276.49 334.446L275.491 336.878L267.848 355.491C267.746 355.437 267.638 355.395 267.53 355.354L275.08 336.97Z" fill="white"/>
<path d="M236.249 360.421L237.119 360.346L236.89 360.728L236.279 360.78C236.285 360.662 236.274 360.541 236.249 360.421Z" fill="white"/>
<path d="M263.966 358.042C263.968 358.162 263.975 358.281 263.992 358.402L238.601 360.581L238.83 360.199L263.966 358.042Z" fill="white"/>
<path d="M384.013 312.731L382.279 310.907L365.569 293.343C365.657 293.265 365.735 293.177 365.809 293.085L382.679 310.818L384.414 312.641L384.71 312.953L385.195 313.462L415.533 345.352C415.445 345.43 415.365 345.517 415.292 345.609L384.951 313.716L384.466 313.207L384.013 312.731Z" fill="white"/>
<path d="M60.2313 302.949C60.0799 303.132 59.954 303.333 59.8543 303.551L39.7105 289.648L38.9869 289.148L4.28326 265.196L4.65989 264.594L39.8048 288.85L40.5282 289.35L60.2313 302.949Z" fill="white"/>
<path d="M57.3711 360.887L56.6809 360.887L61.5893 307.351C61.8113 307.406 62.04 307.43 62.2732 307.42L57.3711 360.887Z" fill="white"/>
<path d="M149.844 291.018C150.035 290.867 150.16 290.641 150.186 290.393L169.959 302.212L170.818 302.726L186.395 312.036C186.251 312.226 186.144 312.441 186.062 312.667L169.86 302.982L169.001 302.469L149.844 291.018Z" fill="white"/>
<path d="M190.461 264.681L173.599 240.88L173.17 240.274L171.13 237.395C171.353 237.301 171.543 237.156 171.685 236.97L173.85 240.026L174.279 240.633L191.008 264.247C190.799 264.36 190.619 264.51 190.461 264.681Z" fill="white"/>
<path d="M190.646 267.995L167.448 289.845C167.325 289.636 167.172 289.453 166.992 289.306L190.194 267.453C190.32 267.659 190.469 267.846 190.646 267.995Z" fill="white"/>
<path d="M351.095 320.056L349.767 318.141L338.722 302.214C338.935 302.107 339.121 301.962 339.277 301.789L350.503 317.977L351.831 319.892L362.844 335.772L363.253 336.362L380.261 360.887L379.412 360.887L362.76 336.876L362.351 336.287L351.095 320.056Z" fill="white"/>
<path d="M363.752 289.541L362.151 261.796C362.375 261.823 362.605 261.803 362.835 261.745L364.437 289.488C364.212 289.463 363.982 289.486 363.752 289.541Z" fill="white"/>
<path d="M60.042 306.227C59.9045 306.013 59.7848 305.783 59.7081 305.523C59.5076 304.843 59.5819 304.146 59.8543 303.551C59.9539 303.333 60.0799 303.132 60.2313 302.949C60.5365 302.579 60.9347 302.287 61.4125 302.132C61.7111 302.035 62.0125 302.007 62.3075 302.023C62.4232 302.029 62.5358 302.046 62.6485 302.068C63.5595 302.248 64.3506 302.926 64.6436 303.92C64.9118 304.83 64.6976 305.773 64.1577 306.455L62.8607 307.151L62.9391 307.312C62.7173 307.384 62.4946 307.412 62.2733 307.42C62.04 307.43 61.8114 307.406 61.5894 307.351C61.1843 307.251 60.8089 307.055 60.4939 306.77C60.321 306.614 60.1719 306.43 60.042 306.227Z" fill="white"/>
<path d="M123.586 335.161C123.256 334.041 123.853 332.851 124.921 332.504C124.964 332.491 125.006 332.488 125.049 332.477L125.349 334.561L125.689 334.506L125.389 332.419C126.301 332.357 127.17 332.948 127.452 333.906C127.783 335.026 127.185 336.216 126.117 336.563C125.597 336.732 125.062 336.666 124.611 336.428C124.509 336.374 124.413 336.308 124.32 336.237C123.985 335.977 123.719 335.612 123.586 335.161Z" fill="white"/>
<path d="M92.0872 215.168C91.7959 214.18 92.3232 213.13 93.2654 212.824C94.2074 212.518 95.2075 213.072 95.4989 214.061C95.7904 215.05 95.2629 216.099 94.3209 216.405C93.8229 216.567 93.3117 216.483 92.8945 216.227C92.7957 216.167 92.7029 216.096 92.6164 216.016C92.3776 215.796 92.1882 215.511 92.0872 215.168Z" fill="white"/>
<path d="M31.8529 218.784C30.401 219.255 28.86 218.402 28.411 216.878C27.9618 215.355 28.7748 213.737 30.2265 213.266C31.6783 212.794 33.2193 213.648 33.6683 215.171C33.9502 216.128 33.7342 217.12 33.176 217.844C33.1041 217.937 33.0188 218.018 32.9358 218.102C32.6367 218.403 32.2762 218.646 31.8529 218.784Z" fill="white"/>
<path d="M194.13 266.277C194.116 267.225 193.538 268.099 192.628 268.394C191.92 268.625 191.184 268.45 190.646 267.995C190.469 267.845 190.32 267.659 190.194 267.453C190.092 267.285 190.002 267.107 189.944 266.908C189.704 266.094 189.933 265.253 190.46 264.681C190.618 264.51 190.799 264.36 191.008 264.247C191.12 264.186 191.235 264.131 191.36 264.09C192.492 263.723 193.694 264.388 194.045 265.577C194.078 265.69 194.094 265.804 194.11 265.917C194.127 266.038 194.132 266.158 194.13 266.277Z" fill="white"/>
<path d="M236.678 263.079L236.439 263.337L237.52 264.435C237.372 264.563 237.2 264.664 237.006 264.727C236.207 264.987 235.358 264.517 235.111 263.678C235.092 263.615 235.085 263.552 235.074 263.49C235.053 263.369 235.044 263.249 235.05 263.13C235.081 262.482 235.485 261.892 236.111 261.689C236.91 261.429 237.759 261.899 238.006 262.738C238.098 263.05 238.093 263.369 238.01 263.66C237.958 263.847 237.87 264.021 237.757 264.175L236.678 263.079Z" fill="white"/>
<path d="M187.471 311.265C188.64 310.885 189.88 311.572 190.242 312.799C190.447 313.494 190.316 314.209 189.959 314.771L189.025 313.823L188.787 314.081L189.747 315.056C189.736 315.068 189.724 315.08 189.713 315.092C189.632 315.181 189.546 315.263 189.451 315.338C189.252 315.494 189.031 315.625 188.78 315.706C187.612 316.086 186.371 315.399 186.01 314.173C185.858 313.658 185.894 313.134 186.062 312.667C186.144 312.441 186.251 312.226 186.395 312.036C186.662 311.683 187.03 311.408 187.471 311.265Z" fill="white"/>
<path d="M263.966 358.042C263.946 356.824 264.676 355.686 265.841 355.307C266.417 355.12 267.003 355.156 267.53 355.354C267.638 355.395 267.746 355.437 267.848 355.491C268.47 355.824 268.97 356.407 269.193 357.163C269.434 357.982 269.291 358.822 268.886 359.494C268.824 359.596 268.764 359.697 268.69 359.791C268.37 360.196 267.94 360.514 267.425 360.681C266.011 361.14 264.511 360.309 264.073 358.825C264.032 358.685 264.012 358.543 263.992 358.402C263.975 358.281 263.968 358.162 263.966 358.042Z" fill="white"/>
<path d="M235.083 360.583L234.143 359.629C234.268 359.524 234.412 359.44 234.573 359.387C235.27 359.161 236.011 359.57 236.226 360.302C236.238 360.342 236.241 360.381 236.249 360.421C236.274 360.541 236.285 360.661 236.279 360.78C236.278 360.816 236.277 360.852 236.272 360.887L233.656 360.887C233.612 360.525 233.707 360.17 233.906 359.888L234.844 360.841L235.083 360.583Z" fill="white"/>
<path d="M283.004 313.418C282.773 312.635 283.146 311.814 283.841 311.487L283.893 311.54L284.012 311.411C284.819 311.149 285.675 311.623 285.925 312.47C286.174 313.316 285.723 314.215 284.916 314.477C284.834 314.503 284.752 314.517 284.669 314.529C284.542 314.547 284.416 314.552 284.293 314.537C283.708 314.467 283.189 314.046 283.004 313.418Z" fill="white"/>
<path d="M296.917 360.887C296.861 360.768 296.806 360.647 296.767 360.516C296.367 359.159 297.091 357.719 298.384 357.299C299.677 356.879 301.05 357.639 301.45 358.996C301.642 359.649 301.569 360.319 301.303 360.887L296.917 360.887Z" fill="white"/>
<path d="M336.115 301.021C335.808 299.978 336.364 298.871 337.358 298.548C338.351 298.226 339.406 298.81 339.714 299.852C339.922 300.558 339.728 301.287 339.277 301.789C339.121 301.962 338.935 302.107 338.722 302.214C338.641 302.254 338.56 302.296 338.471 302.325C337.477 302.648 336.422 302.064 336.115 301.021Z" fill="white"/>
<path d="M337.566 271.518C337.16 270.142 337.894 268.682 339.206 268.256C340.517 267.83 341.908 268.601 342.314 269.977C342.719 271.353 341.985 272.814 340.674 273.239C339.95 273.474 339.206 273.334 338.613 272.939C338.516 272.874 338.421 272.808 338.333 272.729C337.985 272.419 337.711 272.01 337.566 271.518Z" fill="white"/>
<path d="M362.151 261.796C361.387 261.706 360.708 261.155 360.466 260.334C360.14 259.228 360.73 258.053 361.784 257.711C362.838 257.369 363.958 257.988 364.284 259.095C364.61 260.201 364.02 261.376 362.965 261.718C362.922 261.732 362.879 261.735 362.836 261.745C362.606 261.803 362.375 261.823 362.151 261.796Z" fill="white"/>
<path d="M364.836 293.764C363.734 294.122 362.563 293.475 362.222 292.317C361.881 291.16 362.498 289.932 363.601 289.574C363.651 289.557 363.702 289.554 363.752 289.542C363.982 289.486 364.212 289.463 364.437 289.488C365.243 289.577 365.96 290.156 366.215 291.021C366.434 291.764 366.255 292.533 365.809 293.086C365.735 293.177 365.657 293.265 365.569 293.343C365.36 293.529 365.114 293.674 364.836 293.764Z" fill="white"/>
<path d="M125.349 334.561L125.049 332.477L122.625 315.645L122.522 314.929L120.198 298.783C120.318 298.725 120.423 298.647 120.512 298.551L122.857 314.839L122.96 315.555L125.388 332.419L125.689 334.507L125.349 334.561Z" fill="white"/>
<path d="M64.1578 306.455L87.192 294.08C87.2381 294.192 87.2847 294.302 87.3429 294.404L63.0176 307.472L62.9392 307.312L62.8608 307.151L64.1578 306.455Z" fill="white"/>
<path d="M210.772 336.402L209.261 334.868L189.747 315.056L188.787 314.081L189.026 313.822L189.959 314.771L209.55 334.66L211.061 336.194L221.411 346.702L223.197 348.515L225.738 351.094L226.433 351.801L234.143 359.628L235.083 360.583L234.844 360.841L233.906 359.888L226.44 352.308L225.744 351.602L222.792 348.605L221.006 346.792L210.772 336.402Z" fill="white"/>
<path d="M253.417 280.583L252.837 279.995L237.52 264.435L236.439 263.337L236.677 263.079L237.757 264.175L238.144 264.568L253.228 279.89L253.807 280.479L266.645 293.519L268.155 295.053L284.132 311.281L284.012 311.411L283.893 311.54L283.841 311.487L267.867 295.261L266.356 293.727L253.417 280.583Z" fill="white"/>
<path d="M171.13 237.395C171.096 237.409 171.065 237.428 171.03 237.439C170.32 237.669 169.567 237.252 169.347 236.507C169.128 235.762 169.525 234.971 170.235 234.741C170.945 234.51 171.699 234.927 171.918 235.672C172.055 236.136 171.952 236.617 171.684 236.97C171.543 237.156 171.352 237.301 171.13 237.395Z" fill="white"/>
<path d="M167.448 289.845C167.531 289.988 167.604 290.138 167.654 290.305C167.969 291.375 167.399 292.51 166.38 292.841C165.361 293.172 164.279 292.573 163.964 291.503C163.649 290.434 164.219 289.299 165.238 288.968C165.864 288.765 166.511 288.915 166.992 289.306C167.172 289.453 167.325 289.636 167.448 289.845Z" fill="white"/>
<path d="M87.078 293.798C86.6394 292.31 87.4333 290.731 88.8511 290.27C90.269 289.81 91.7739 290.643 92.2126 292.131C92.6512 293.619 91.8574 295.199 90.4395 295.659C89.23 296.052 87.963 295.498 87.3427 294.405C87.2845 294.302 87.238 294.192 87.1918 294.08C87.1533 293.987 87.1074 293.898 87.078 293.798Z" fill="white"/>
<path d="M148.496 290.562C148.355 290.082 148.611 289.572 149.069 289.423C149.526 289.275 150.012 289.544 150.153 290.024C150.19 290.147 150.199 290.272 150.186 290.393C150.16 290.641 150.035 290.867 149.844 291.018C149.766 291.079 149.679 291.131 149.581 291.162C149.124 291.311 148.638 291.042 148.496 290.562Z" fill="white"/>
<path d="M118.748 298.105C118.575 297.518 118.888 296.896 119.447 296.715C120.006 296.533 120.599 296.861 120.772 297.448C120.891 297.852 120.776 298.269 120.513 298.551C120.424 298.647 120.318 298.725 120.198 298.783C120.157 298.802 120.117 298.824 120.073 298.838C119.514 299.02 118.921 298.691 118.748 298.105Z" fill="white"/>
<path d="M390.633 161.421L388.512 154.222L366.434 79.3177L367.746 78.8919L389.824 153.796L391.946 160.995L390.633 161.421Z" fill="white"/>
<path d="M247.46 343.116L248.99 340.566L262.672 317.768L263.834 318.536L250.863 340.149L249.332 342.699L238.83 360.199L238.601 360.581L238.417 360.887L236.794 360.887L236.89 360.728L237.119 360.346L247.46 343.116Z" fill="white"/>
</g>
</svg>
