<svg width="67" height="60" viewBox="0 0 67 60" fill="none" xmlns="http://www.w3.org/2000/svg">
<path d="M0 -0.25V59.75H67V-0.25H0ZM36.4612 46.5446C36.4612 52.3839 32.6326 55.0491 27.0542 55.0491C22.0143 55.0491 19.098 52.7187 17.6025 49.8929L22.7321 47.1205C23.7192 48.6875 24.6165 50.0134 26.785 50.0134C28.8489 50.0134 30.165 49.2902 30.165 46.4643V27.2991H36.4612V46.5446ZM51.3567 55.0491C45.5091 55.0491 41.7254 52.558 39.8859 49.2902L45.0156 46.6384C46.3616 48.6071 48.1263 50.067 51.2221 50.067C53.8243 50.067 55.4993 48.9018 55.4993 47.2812C55.4993 45.3527 53.7944 44.6696 50.908 43.5312L49.3377 42.9286C44.7913 41.2009 41.7853 39.0179 41.7853 34.4241C41.7853 30.192 45.3895 26.9777 50.9978 26.9777C55.0058 26.9777 57.8772 28.2232 59.9411 31.4911L55.0357 34.3036C53.9589 32.5759 52.7924 31.8929 50.9828 31.8929C49.1433 31.8929 47.9768 32.9375 47.9768 34.3036C47.9768 35.9911 49.1433 36.6741 51.8502 37.7321L53.4205 38.3348C58.7746 40.3839 61.7806 42.4866 61.7806 47.2009C61.7806 52.2634 57.3239 55.0491 51.3567 55.0491Z" fill="#848484"/>
</svg>
