<svg width="28" height="28" viewBox="0 0 28 28" fill="none" xmlns="http://www.w3.org/2000/svg">
<path d="M13.9936 3.18961e-08C21.7278 -0.000516182 27.9992 6.26493 28 13.9931C28.0008 21.7435 21.727 28.0037 13.9628 28C6.23466 27.9964 -0.00643359 21.7022 4.97723e-06 13.9185C0.00634731 6.26411 6.30375 0.000516246 13.9936 3.18961e-08ZM22.2278 21.1548C22.2278 20.9936 22.2278 20.8652 22.2278 20.7368C22.2276 18.8708 22.2512 17.0044 22.2139 15.1391C22.2013 14.5076 22.1095 13.8562 21.9239 13.2539C21.5068 11.9004 20.6 11.0097 19.1718 10.7546C17.6932 10.4905 16.3905 10.7859 15.4365 12.0568C15.3932 12.1145 15.3258 12.1543 15.2131 12.2507V10.9417H11.84V21.1453H15.2277C15.2277 20.9552 15.2277 20.7963 15.2277 20.6375C15.2284 18.8298 15.2206 17.0221 15.2332 15.2145C15.2395 14.3023 15.9566 13.4835 16.7975 13.3816C17.769 13.2638 18.4201 13.6715 18.6816 14.6004C18.7671 14.9042 18.8031 15.2308 18.8064 15.5475C18.8202 16.8885 18.8132 18.2297 18.8137 19.5709C18.8138 20.0918 18.8137 20.6127 18.8137 21.1548L22.2278 21.1548ZM9.913 10.9318H6.5463V21.1586H9.913V10.9318ZM10.1478 7.74942C10.1491 6.70641 9.357 5.95271 8.25555 5.94887C7.15741 5.94505 6.32667 6.70171 6.31567 7.7158C6.3046 8.73526 7.1296 9.51824 8.21808 9.52131C9.31995 9.52441 10.1465 8.76544 10.1478 7.74942Z" fill="#A15AFF"/>
</svg>
