<svg width="24" height="24" viewBox="0 0 24 24" fill="none" xmlns="http://www.w3.org/2000/svg">
<g id="Object" clip-path="url(#clip0_164_23)">
<path id="Vector" d="M20.4853 3.51471C18.2188 1.24822 15.2053 0 12 0C8.79463 0 5.78121 1.24822 3.51471 3.51471C1.24821 5.78121 0 8.79467 0 12C0 15.2053 1.24821 18.2188 3.51471 20.4853C5.78121 22.7518 8.79468 24 12 24C15.2053 24 18.2188 22.7518 20.4853 20.4853C22.7518 18.2188 24 15.2053 24 12C24 8.79467 22.7518 5.78121 20.4853 3.51471ZM13.9264 2.21242C13.9037 2.06384 13.8924 1.85884 13.7954 1.78741C13.5767 1.62639 13.5724 1.43589 13.5867 1.20989C13.5947 1.08486 13.5863 0.958153 13.575 0.832426C15.1732 1.05676 16.6649 1.6171 17.9763 2.43983C17.4733 2.91061 16.8897 3.2765 16.311 3.64631C16.0499 3.81315 15.8922 4.0338 15.8109 4.32706C15.7127 4.68123 15.6048 5.03287 15.4921 5.38271C15.4603 5.48136 15.4067 5.57684 15.3456 5.66114C15.2771 5.75569 15.2008 5.75878 15.1321 5.64504C15.0894 5.57434 15.0388 5.47752 14.9722 5.45758C14.7121 5.37966 14.5852 5.17529 14.4781 4.96153C14.2821 4.56997 14.0885 4.1754 13.9264 3.76913C13.7601 3.35242 13.7257 2.9181 13.8789 2.48169C13.909 2.39601 13.9395 2.29806 13.9264 2.21242ZM19.8105 9.53359C19.9544 9.09182 20.0208 9.02644 20.495 9.05242C20.5444 9.05513 20.5936 9.06188 20.6431 9.06415C20.8477 9.07352 20.9174 9.00141 20.8377 8.81333C20.7503 8.6072 20.6264 8.41569 20.5099 8.22303C20.4074 8.05363 20.4232 7.98678 20.6194 7.97809C21.0254 7.9601 21.3206 7.7525 21.593 7.47831C21.7572 7.31306 21.9274 7.15273 22.1019 6.98944C22.5343 7.85783 22.8584 8.78921 23.0555 9.76618C23.0255 9.71244 22.973 9.66731 22.9035 9.62899C22.6875 9.50997 22.4734 9.38192 22.2449 9.29256C21.8488 9.13763 21.6446 9.22533 21.443 9.59808C21.4128 9.6539 21.3846 9.71162 21.3631 9.7712C21.2787 10.005 21.1128 10.1612 20.8943 10.2664C20.7224 10.3493 20.5479 10.4269 20.3754 10.5085C20.2184 10.5827 20.0879 10.546 19.9765 10.4191C19.7459 10.1566 19.7002 9.87221 19.8105 9.53359ZM23.0412 10.0333C23.0645 9.98713 23.0778 9.94475 23.0823 9.90567C23.103 10.0152 23.1223 10.1251 23.1397 10.2357C23.0852 10.269 23.0286 10.3037 22.9676 10.341C23.0018 10.1916 23.0053 10.1042 23.0412 10.0333ZM11.0674 23.2393C11.1104 22.9423 11.1518 22.6564 11.1874 22.3702C11.3112 21.3746 11.4191 20.377 11.5547 19.3831C11.613 18.9552 11.4861 18.6312 11.1731 18.3422C10.9744 18.1588 10.7978 17.9415 10.652 17.7133C10.4852 17.4524 10.369 17.1598 10.2207 16.8864C10.1052 16.6732 10.0923 16.455 10.159 16.2297C10.2252 16.0062 10.3109 15.7881 10.3706 15.563C10.4695 15.1901 10.3929 14.9723 10.0744 14.7562C9.85267 14.6058 9.61297 14.482 9.38199 14.3452C9.22417 14.2517 9.04072 14.1828 8.91562 14.0565C8.59822 13.736 8.20876 13.5979 7.78071 13.5375C7.36083 13.4783 7.04636 13.2579 6.8071 12.9202C6.7051 12.7762 6.6173 12.6222 6.51992 12.4749C6.48492 12.4219 6.44075 12.375 6.36752 12.2841C6.32138 12.5075 6.28709 12.6736 6.24135 12.8952C6.13779 12.7646 6.06402 12.682 6.0019 12.5914C5.59406 11.9968 5.18648 11.4019 4.78439 10.8034C4.69816 10.675 4.62349 10.5362 4.56281 10.3939C4.3117 9.80515 4.2272 9.18597 4.2284 8.54938C4.22871 8.38351 4.20924 8.20568 4.14811 8.05378C3.93946 7.53534 3.61118 7.10336 3.11196 6.83276C2.78802 6.65719 2.558 6.40831 2.39501 6.09545C3.32481 4.58847 4.59894 3.31572 6.10712 2.38772C6.72028 2.48025 7.33256 2.54573 7.94364 2.29582C8.04133 2.25587 8.22894 2.27193 8.28982 2.33914C8.42685 2.49039 8.54806 2.45422 8.68604 2.38565C8.89491 2.28184 9.09289 2.15131 9.30975 2.07028C9.42943 2.02556 9.60093 2.01196 9.70977 2.06499C10.1163 2.26301 10.3113 3.03045 10.0758 3.4157C9.90293 3.69848 9.90666 3.74605 10.1289 3.97763C10.2194 4.07192 10.2512 4.16569 10.1041 4.22436C9.81819 4.33844 9.54403 4.55657 9.21065 4.349C9.18474 4.33287 9.14106 4.33743 9.10739 4.34296C8.91982 4.37376 8.46626 4.81705 8.43959 5.01197C8.40893 5.23592 8.38019 5.46314 8.38726 5.68779C8.39011 5.77854 8.47155 5.89009 8.54956 5.95028C8.70492 6.07013 8.8765 6.17348 9.05283 6.2604C9.23977 6.35256 9.43407 6.45065 9.63583 6.48719C9.95951 6.5458 10.0231 6.59199 10.016 6.92084C10.0149 6.97035 10.0131 7.01989 10.0099 7.0693C9.99946 7.22708 10.0478 7.32381 10.2293 7.33436C10.4334 7.34622 10.4105 7.20451 10.4255 7.08196C10.4433 6.93591 10.4072 6.73854 10.4885 6.65364C10.7084 6.42425 10.6328 6.21015 10.5196 5.99526C10.3855 5.74046 10.3616 5.48793 10.4467 5.21718C10.4741 5.12995 10.5069 5.03674 10.5019 4.94828C10.4808 4.57832 10.7456 4.51933 11.0314 4.59733C11.4171 4.70258 11.6998 4.9134 11.8338 5.30951C11.9119 5.54051 12.0414 5.55126 12.199 5.36183C12.2306 5.32392 12.2549 5.28016 12.2846 5.24062C12.3502 5.15335 12.417 5.06704 12.4833 4.98033C12.561 5.07565 12.6545 5.16234 12.7127 5.2684C12.7904 5.4101 12.8317 5.57142 12.905 5.716C13.0101 5.92326 13.1048 6.14321 13.2482 6.32227C13.7172 6.90775 13.8429 7.64604 14.1571 8.29946C14.2041 8.39733 14.1749 8.51742 14.0312 8.50175C13.6215 8.45708 13.2862 8.64965 12.9582 8.83941C12.4881 9.1113 12.029 9.40316 11.5771 9.70444C11.4314 9.80162 11.3012 9.94053 11.2031 10.0866C11.0423 10.3259 10.9399 10.6069 10.7654 10.8337C10.4778 11.2072 10.1677 11.5559 10.2224 12.0778C10.2284 12.1352 10.1596 12.2384 10.1067 12.2533C10.0565 12.2674 9.96792 12.2059 9.92086 12.155C9.85984 12.0889 9.81418 12.0042 9.77777 11.9206C9.66118 11.6529 9.44037 11.5406 9.17005 11.5348C8.93164 11.5297 8.68909 11.5431 8.45432 11.5832C8.07748 11.6475 7.92211 11.8693 7.98253 12.25C8.01771 12.4717 8.08344 12.69 8.15226 12.9044C8.21758 13.108 8.29273 13.1405 8.48222 13.0297C8.66396 12.9234 8.8316 12.7909 8.99693 12.6592C9.18105 12.5126 9.28317 12.5285 9.33959 12.7612C9.3803 12.929 9.35476 13.1119 9.3823 13.2843C9.39714 13.3773 9.44538 13.5246 9.5062 13.5403C9.78752 13.613 9.91904 13.8111 10.0345 14.0489C10.1428 14.2719 10.3028 14.3415 10.5435 14.2796C10.665 14.2484 10.774 14.1702 10.8952 14.1361C11.0871 14.0821 11.2879 13.9993 11.4788 14.0132C12.0543 14.055 12.6037 14.2259 13.1258 14.4692C13.3526 14.5749 13.5854 14.6924 13.7723 14.8545C14.1295 15.1643 14.4509 15.5152 14.7986 15.8367C14.8811 15.913 15.004 15.9562 15.116 15.9883C15.53 16.1067 15.9529 16.1966 16.3614 16.3308C16.7097 16.4452 16.7971 16.5825 16.7178 16.9449C16.6108 17.4336 16.4525 17.911 16.3155 18.393C16.2134 18.7521 15.9964 19.0331 15.7254 19.2823C15.5333 19.459 15.3446 19.6417 15.1731 19.838C14.3596 20.7692 13.6239 21.7717 12.6516 22.5562C12.3953 22.7629 12.348 23.0084 12.3792 23.271C12.2532 23.2752 12.1269 23.2781 12 23.2781C11.6859 23.2781 11.375 23.2646 11.0674 23.2393ZM22.3792 16.4112C22.3584 16.3744 22.336 16.3374 22.3101 16.3C22.1985 16.1385 22.1742 15.9508 22.2347 15.7516C22.3171 15.4805 22.2669 15.3986 21.9984 15.3239C21.9307 15.3051 21.8591 15.2873 21.7899 15.2893C21.3878 15.3005 20.983 15.2926 20.5845 15.3385C19.9246 15.4145 19.514 15.2545 19.2168 14.6626C19.0388 14.308 18.9356 13.9121 18.8294 13.5263C18.7097 13.0918 18.7599 12.6593 19.0155 12.2836C19.3489 11.7936 19.7079 11.3207 20.0653 10.8477C20.1207 10.7744 20.2207 10.7089 20.3101 10.6916C20.9123 10.5755 21.5138 10.4436 22.1221 10.3764C22.576 10.3262 22.9706 10.4818 23.1906 10.9408C23.2034 10.9675 23.2184 10.992 23.2346 11.0151C23.2628 11.3398 23.2781 11.6681 23.2781 12C23.2781 13.5645 22.9576 15.0555 22.3792 16.4112Z" fill="white"/>
</g>
<defs>
<clipPath id="clip0_164_23">
<rect width="24" height="24" fill="white"/>
</clipPath>
</defs>
</svg>
