<svg width="60" height="60" viewBox="0 0 60 60" fill="none" xmlns="http://www.w3.org/2000/svg">
<path d="M30.0016 0C13.458 0 0 13.457 0 29.9988C0 46.5418 13.4586 60 30.0009 60C46.5426 60 60 46.5418 60 29.9988C60.0006 13.4576 46.5432 0 30.0016 0ZM3.02753 29.9988C3.02753 26.0892 3.86608 22.3759 5.36301 19.0224L18.23 54.2743C9.23283 49.9015 3.02753 40.6752 3.02753 29.9988ZM30.0016 56.9732C27.3537 56.9732 24.7982 56.5848 22.3816 55.8741L30.4741 32.3585L38.7668 55.0723C38.8204 55.2064 38.8859 55.3286 38.9588 55.4439C36.1551 56.4302 33.1426 56.9732 30.0016 56.9732ZM33.718 17.3529C35.3415 17.2675 36.806 17.096 36.806 17.096C38.2587 16.9239 38.0885 14.7887 36.6333 14.8741C36.6333 14.8741 32.2647 15.2163 29.4436 15.2163C26.7939 15.2163 22.3386 14.8741 22.3386 14.8741C20.8847 14.7887 20.7151 17.0106 22.1684 17.096C22.1684 17.096 23.545 17.2675 24.997 17.3529L29.1992 28.8672L23.2962 46.5698L13.4755 17.3535C15.1015 17.2687 16.5629 17.0966 16.5629 17.0966C18.0155 16.9252 17.8441 14.7887 16.3895 14.8759C16.3895 14.8759 12.0228 15.2182 9.20103 15.2182C8.69416 15.2182 8.09751 15.2051 7.46532 15.1858C12.2872 7.86222 20.5786 3.02743 30.0016 3.02743C37.0248 3.02743 43.4178 5.71197 48.216 10.1079C48.0994 10.1016 47.9865 10.086 47.8656 10.086C45.2171 10.086 43.3368 12.394 43.3368 14.8734C43.3368 17.0954 44.618 18.9769 45.9852 21.1989C47.0121 22.9956 48.2091 25.3042 48.2091 28.6378C48.2091 30.947 47.3225 33.6253 46.1561 37.3572L43.4658 46.3479L33.718 17.3529ZM43.5612 53.3142L51.8002 29.4938C53.3408 25.6465 53.8514 22.5698 53.8514 19.8323C53.8514 18.8404 53.7866 17.9183 53.6694 17.0586C55.7767 20.9009 56.9756 25.3105 56.9743 30C56.9737 39.9501 51.5795 48.6384 43.5612 53.3142Z" fill="#848484"/>
</svg>
