<svg width="35" height="15" viewBox="0 0 35 15" fill="none" xmlns="http://www.w3.org/2000/svg">
<g clip-path="url(#clip0_2_10)">
<path d="M14.5099 10.9179L12.8871 9.22885C13.0932 8.93394 13.2349 8.63233 13.3121 8.32402C13.3894 8.01571 13.4281 7.7007 13.4281 7.37898C13.4281 7.05726 13.3894 6.74225 13.3121 6.43394C13.2349 6.12563 13.0932 5.83742 12.8871 5.56933L14.5099 3.84011C14.922 4.34949 15.2311 4.91249 15.4371 5.52911C15.6432 6.14574 15.7462 6.76236 15.7462 7.37898C15.7462 7.9956 15.6432 8.60552 15.4371 9.20874C15.2311 9.81196 14.922 10.3817 14.5099 10.9179ZM17.794 14.3763L16.1326 12.6471C16.7765 11.8964 17.2595 11.0653 17.5815 10.1538C17.9034 9.24225 18.0644 8.31732 18.0644 7.37898C18.0644 6.44064 17.9034 5.52241 17.5815 4.62429C17.2595 3.72616 16.7765 2.90177 16.1326 2.1511L17.794 0.421875C18.6697 1.41383 19.3201 2.50633 19.7451 3.69936C20.1701 4.89238 20.3826 6.11893 20.3826 7.37898C20.3826 8.63903 20.1701 9.87228 19.7451 11.0787C19.3201 12.2851 18.6697 13.3843 17.794 14.3763ZM6.47351 8.98756C5.62351 8.98756 4.89585 8.67255 4.29055 8.04252C3.68525 7.41249 3.3826 6.65512 3.3826 5.7704C3.3826 4.88568 3.68525 4.12831 4.29055 3.49828C4.89585 2.86826 5.62351 2.55324 6.47351 2.55324C7.32351 2.55324 8.05116 2.86826 8.65646 3.49828C9.26176 4.12831 9.56441 4.88568 9.56441 5.7704C9.56441 6.65512 9.26176 7.41249 8.65646 8.04252C8.05116 8.67255 7.32351 8.98756 6.47351 8.98756ZM0.291687 15.4219V14.4969C0.291687 13.8535 0.459111 13.2637 0.79396 12.7275C1.12881 12.1913 1.59244 11.7892 2.18487 11.5211C2.85457 11.2262 3.54358 10.9983 4.25191 10.8374C4.96025 10.6766 5.70078 10.5961 6.47351 10.5961C7.24623 10.5961 7.98676 10.6766 8.6951 10.8374C9.40343 10.9983 10.0924 11.2262 10.7621 11.5211C11.3546 11.7892 11.8182 12.1913 12.1531 12.7275C12.4879 13.2637 12.6553 13.8535 12.6553 14.4969V15.4219H0.291687ZM28.1099 8.98756C27.2599 8.98756 26.5322 8.67255 25.9269 8.04252C25.3216 7.41249 25.019 6.65512 25.019 5.7704C25.019 4.88568 25.3216 4.12831 25.9269 3.49828C26.5322 2.86826 27.2599 2.55324 28.1099 2.55324C28.9599 2.55324 29.6875 2.86826 30.2928 3.49828C30.8981 4.12831 31.2008 4.88568 31.2008 5.7704C31.2008 6.65512 30.8981 7.41249 30.2928 8.04252C29.6875 8.67255 28.9599 8.98756 28.1099 8.98756ZM21.9281 15.4219V14.4969C21.9281 13.8535 22.0955 13.2637 22.4303 12.7275C22.7652 12.1913 23.2288 11.7892 23.8212 11.5211C24.4909 11.2262 25.1799 10.9983 25.8883 10.8374C26.5966 10.6766 27.3371 10.5961 28.1099 10.5961C28.8826 10.5961 29.6231 10.6766 30.3315 10.8374C31.0398 10.9983 31.7288 11.2262 32.3985 11.5211C32.9909 11.7892 33.4546 12.1913 33.7894 12.7275C34.1243 13.2637 34.2917 13.8535 34.2917 14.4969V15.4219H21.9281Z" fill="white"/>
</g>
<defs>
<clipPath id="clip0_2_10">
<rect width="35" height="15" fill="white"/>
</clipPath>
</defs>
</svg>
