<svg width="40" height="40" viewBox="0 0 40 40" fill="none" xmlns="http://www.w3.org/2000/svg">
<g clip-path="url(#clip0_142_3777)">
<path d="M35 0H5C2.23858 0 0 2.23858 0 5V35C0 37.7614 2.23858 40 5 40H35C37.7614 40 40 37.7614 40 35V5C40 2.23858 37.7614 0 35 0Z" fill="white"/>
<path d="M8.37314 15.886C9.37681 16.4942 10.3244 17.0673 11.2708 17.6423C13.7963 19.1768 16.3265 20.704 18.843 22.2531C19.469 22.6385 20.0316 22.6458 20.6608 22.2604C24.0277 20.1982 27.4056 18.154 30.7798 16.1038C30.8792 16.0435 30.9805 15.9863 31.1183 15.9058C31.1281 16.0346 31.142 16.1323 31.142 16.2301C31.1431 18.9964 31.1468 21.7626 31.1415 24.5289C31.1379 26.4306 29.6797 27.8979 27.7675 27.9009C22.4326 27.9092 17.0976 27.9086 11.7627 27.9014C9.83038 27.8987 8.37694 26.4337 8.37419 24.5076C8.37014 21.659 8.37314 18.8102 8.37314 15.886Z" fill="#5600C6"/>
<path d="M19.7734 11.1647C22.4408 11.1646 25.1081 11.1596 27.7754 11.1667C29.2195 11.1705 30.4856 12.0861 30.9483 13.4176C31.0392 13.6792 31.0116 13.8161 30.7485 13.9753C27.1684 16.1418 23.597 18.3225 20.0279 20.5069C19.831 20.6275 19.6913 20.6324 19.4915 20.51C15.9129 18.3183 12.3311 16.132 8.74308 13.9559C8.514 13.8169 8.47272 13.6994 8.55347 13.4552C8.99726 12.1132 10.2818 11.1708 11.7358 11.1668C14.415 11.1594 17.0942 11.1647 19.7734 11.1647Z" fill="#5600C6"/>
</g>
<defs>
<clipPath id="clip0_142_3777">
<rect width="40" height="40" fill="white"/>
</clipPath>
</defs>
</svg>
