<svg width="40" height="40" viewBox="0 0 40 40" fill="none" xmlns="http://www.w3.org/2000/svg">
<g clip-path="url(#clip0_142_3782)">
<path d="M35 0H5C2.23858 0 0 2.23858 0 5V35C0 37.7614 2.23858 40 5 40H35C37.7614 40 40 37.7614 40 35V5C40 2.23858 37.7614 0 35 0Z" fill="white"/>
<path d="M19.5289 6.51172C26.7235 6.51124 32.5574 12.3396 32.5581 19.5285C32.5588 26.7382 26.7228 32.5616 19.5002 32.5582C12.3113 32.5548 6.50561 26.6998 6.5116 19.4591C6.5175 12.3388 12.3756 6.5122 19.5289 6.51172ZM27.1886 26.1906C27.1886 26.0407 27.1887 25.9212 27.1886 25.8017C27.1884 24.0659 27.2103 22.3297 27.1757 20.5946C27.164 20.0072 27.0785 19.4012 26.9059 18.841C26.5179 17.5819 25.6744 16.7533 24.3459 16.516C22.9704 16.2703 21.7586 16.5451 20.8712 17.7273C20.8308 17.781 20.7681 17.818 20.6634 17.9077V16.69H17.5255V26.1817H20.6769C20.6769 26.0049 20.6769 25.8571 20.6769 25.7094C20.6775 24.0278 20.6703 22.3462 20.682 20.6648C20.6879 19.8162 21.355 19.0546 22.1371 18.9597C23.0409 18.8502 23.6466 19.2294 23.8898 20.0935C23.9694 20.3761 24.0028 20.6799 24.0059 20.9745C24.0187 22.2219 24.0122 23.4696 24.0127 24.7172C24.0128 25.2018 24.0127 25.6863 24.0127 26.1906L27.1886 26.1906ZM15.733 16.6809H12.6012V26.1941H15.733V16.6809ZM15.9514 13.7205C15.9526 12.7502 15.2158 12.0491 14.1912 12.0456C13.1697 12.042 12.3969 12.7459 12.3866 13.6892C12.3763 14.6375 13.1438 15.3659 14.1563 15.3687C15.1813 15.3716 15.9502 14.6656 15.9514 13.7205Z" fill="#5600C6"/>
</g>
<defs>
<clipPath id="clip0_142_3782">
<rect width="40" height="40" fill="white"/>
</clipPath>
</defs>
</svg>
