<svg width="40" height="40" viewBox="0 0 40 40" fill="none" xmlns="http://www.w3.org/2000/svg">
<g clip-path="url(#clip0_142_3785)">
<path d="M35 0H5C2.23858 0 0 2.23858 0 5V35C0 37.7614 2.23858 40 5 40H35C37.7614 40 40 37.7614 40 35V5C40 2.23858 37.7614 0 35 0Z" fill="white"/>
<path d="M19.5555 6.51172C26.7373 6.51676 32.564 12.3621 32.5581 19.556C32.5522 26.7388 26.7082 32.5636 19.5129 32.5582C12.3128 32.5529 6.49633 26.6988 6.51163 19.473C6.52676 12.319 12.3761 6.50669 19.5555 6.51172ZM12.6218 16.1374C12.7188 16.5544 12.7676 16.99 12.9201 17.3857C14.4836 21.4449 17.33 24.2568 21.3197 25.9296C22.1776 26.2893 23.0743 26.4711 24.0127 26.2173C24.8758 25.9838 25.4986 25.4113 26.095 24.7936C26.4949 24.3796 26.4988 24.1418 26.0873 23.7257C25.3725 23.0029 24.6539 22.2839 23.9325 21.5677C23.5182 21.1563 23.2755 21.157 22.8678 21.5653C22.4656 21.9681 22.0773 22.3851 21.6686 22.7812C21.1852 23.2495 20.6206 23.3109 20.0846 22.9328C18.578 21.8698 17.2677 20.6018 16.1886 19.1035C15.7898 18.5497 15.8449 17.9812 16.3249 17.4915C16.7518 17.056 17.1924 16.6338 17.6178 16.1968C17.9257 15.8807 17.9407 15.5783 17.6392 15.2699C16.8719 14.4847 16.0962 13.7074 15.311 12.9401C15.0131 12.6489 14.7279 12.6648 14.4198 12.9592C14.1358 13.2306 13.8586 13.5104 13.5931 13.7999C12.9924 14.455 12.6826 15.228 12.6218 16.1374Z" fill="#5600C6"/>
</g>
<defs>
<clipPath id="clip0_142_3785">
<rect width="40" height="40" fill="white"/>
</clipPath>
</defs>
</svg>
