<svg width="43" height="43" viewBox="0 0 43 43" fill="none" xmlns="http://www.w3.org/2000/svg">
<g clip-path="url(#clip0_164_2069)">
<path d="M35 0H8C3.58172 0 0 3.58172 0 8V35C0 39.4183 3.58172 43 8 43H35C39.4183 43 43 39.4183 43 35V8C43 3.58172 39.4183 0 35 0Z" fill="#1F0642"/>
<path d="M21.0222 7C28.7426 7.00542 35.0063 13.2892 35 21.0227C34.9937 28.7441 28.7113 35.0058 20.9764 35C13.2363 34.9942 6.98359 28.7012 7.00003 20.9334C7.0163 13.2429 13.3044 6.9946 21.0222 7ZM13.5685 17.3476C13.6727 17.7959 13.7252 18.2642 13.8891 18.6896C15.5699 23.0531 18.6298 26.076 22.9187 27.8742C23.8409 28.2609 24.8049 28.4563 25.8136 28.1835C26.7416 27.9325 27.411 27.317 28.0522 26.6531C28.482 26.208 28.4863 25.9523 28.0439 25.505C27.2755 24.728 26.503 23.955 25.7275 23.1851C25.2821 22.7429 25.0212 22.7437 24.583 23.1826C24.1505 23.6156 23.7331 24.0639 23.2937 24.4897C22.7741 24.9931 22.1671 25.0592 21.591 24.6527C19.9714 23.5099 18.5629 22.1469 17.4028 20.5362C16.974 19.9408 17.0333 19.3297 17.5493 18.8032C18.0083 18.3351 18.4818 17.8812 18.9392 17.4115C19.2702 17.0716 19.2862 16.7466 18.9622 16.415C18.1373 15.571 17.3034 14.7354 16.4594 13.9105C16.1391 13.5975 15.8325 13.6145 15.5013 13.931C15.196 14.2228 14.898 14.5235 14.6126 14.8348C13.9668 15.5391 13.6338 16.37 13.5685 17.3476Z" fill="white"/>
</g>
<defs>
<clipPath id="clip0_164_2069">
<rect width="43" height="43" fill="white"/>
</clipPath>
</defs>
</svg>
