<svg width="78" height="62" viewBox="0 0 78 62" fill="none" xmlns="http://www.w3.org/2000/svg">
<path fill-rule="evenodd" clip-rule="evenodd" d="M16.2008 0C11.7503 0 8.45706 3.88693 8.60453 8.10221C8.74605 12.1519 8.56217 17.3969 7.23892 21.6742C5.91094 25.9636 3.66661 28.6817 0 29.0305V32.9695C3.66661 33.3191 5.91094 36.0358 7.23877 40.3257C8.56218 44.603 8.7459 49.848 8.60437 53.8978C8.45691 58.1125 11.7501 62 16.2015 62H61.8051C66.2557 62 69.5483 58.1131 69.4008 53.8978C69.2593 49.848 69.4432 44.603 70.7664 40.3257C72.0944 36.0358 74.3332 33.318 78 32.9695V29.0305C74.3334 28.6809 72.0945 25.9642 70.7664 21.6742C69.443 17.3976 69.2593 12.1519 69.4008 8.10221C69.5483 3.88754 66.2557 0 61.8051 0H16.2002H16.2008ZM52.8814 38.1651C52.8814 43.9693 48.5425 47.4894 41.342 47.4894H29.0847C28.7341 47.4894 28.3978 47.3505 28.1499 47.1031C27.902 46.8557 27.7627 46.5201 27.7627 46.1703V15.8299C27.7627 15.48 27.902 15.1445 28.1499 14.8971C28.3978 14.6497 28.7341 14.5107 29.0847 14.5107H41.2722C47.2762 14.5107 51.2166 17.7558 51.2166 22.7382C51.2166 26.2352 48.5658 29.3659 45.1888 29.9143V30.0967C49.7859 30.5999 52.8814 33.7769 52.8814 38.1651ZM40.0055 18.6924H33.0165V28.5427H38.903C43.4535 28.5427 45.9626 26.7143 45.9626 23.4462C45.9621 20.3835 43.8049 18.6924 40.0055 18.6924ZM33.0165 32.4511V43.3064H40.2626C45.0005 43.3064 47.5101 41.4094 47.5101 37.8445C47.5101 34.2795 44.9301 32.4505 39.9579 32.4505H33.0165V32.4511Z" fill="#848484"/>
</svg>
