<svg width="85" height="43" viewBox="0 0 85 43" fill="none" xmlns="http://www.w3.org/2000/svg">
<path d="M2.37817 4.308C2.05017 4.308 1.81817 4.292 1.68217 4.26C1.54617 4.22 1.46217 4.168 1.43017 4.104C1.40617 4.04 1.39417 3.976 1.39417 3.912C1.39417 3.824 1.43817 3.744 1.52617 3.672C1.62217 3.592 1.81417 3.528 2.10217 3.48C2.47017 3.4 2.90217 3.32 3.39817 3.24C3.90217 3.152 4.43817 3.072 5.00617 3C5.57417 2.92 6.14217 2.848 6.71017 2.784C7.28617 2.72 7.83417 2.672 8.35417 2.64C8.88217 2.6 9.35017 2.58 9.75817 2.58C10.3022 2.58 10.6702 2.628 10.8622 2.724C11.0622 2.82 11.1622 2.924 11.1622 3.036C11.1622 3.14 11.1062 3.236 10.9942 3.324C10.8902 3.412 10.7102 3.456 10.4542 3.456C10.3502 3.456 10.1102 3.48 9.73417 3.528C9.35817 3.568 8.89817 3.624 8.35417 3.696C7.81817 3.76 7.25017 3.832 6.65017 3.912C6.61017 4.184 6.55017 4.544 6.47017 4.992C6.39017 5.432 6.29817 5.916 6.19417 6.444C6.09817 6.972 5.99817 7.504 5.89417 8.04C5.79817 8.568 5.70617 9.06 5.61817 9.516C5.53817 9.972 5.47017 10.348 5.41417 10.644C5.35817 10.94 5.32617 11.116 5.31817 11.172C5.28617 11.42 5.21417 11.608 5.10217 11.736C4.99817 11.856 4.88217 11.916 4.75417 11.916C4.60217 11.916 4.47417 11.852 4.37017 11.724C4.27417 11.588 4.22617 11.352 4.22617 11.016C4.22617 10.904 4.25017 10.688 4.29817 10.368C4.34617 10.04 4.41017 9.652 4.49017 9.204C4.57017 8.756 4.65817 8.28 4.75417 7.776C4.85017 7.272 4.94617 6.78 5.04217 6.3C5.13817 5.812 5.22617 5.372 5.30617 4.98C5.38617 4.58 5.44617 4.268 5.48617 4.044C4.85417 4.116 4.25817 4.18 3.69817 4.236C3.14617 4.284 2.70617 4.308 2.37817 4.308ZM9.92805 12.312C9.62405 12.312 9.37205 12.172 9.17205 11.892C8.98005 11.604 8.88405 11.232 8.88405 10.776C8.88405 10.352 8.98805 9.932 9.19605 9.516C9.41205 9.1 9.69605 8.7 10.048 8.316C10.4 7.932 10.784 7.58 11.2 7.26C11.616 6.932 12.032 6.648 12.448 6.408C12.872 6.168 13.26 5.98 13.612 5.844C13.964 5.708 14.244 5.64 14.452 5.64C14.564 5.64 14.656 5.664 14.728 5.712C14.8 5.752 14.836 5.828 14.836 5.94C14.836 6.012 14.808 6.08 14.752 6.144C14.76 6.144 14.768 6.144 14.776 6.144C14.952 6.144 15.04 6.248 15.04 6.456C15.04 6.528 15.012 6.676 14.956 6.9C14.9 7.116 14.836 7.388 14.764 7.716C14.692 8.044 14.628 8.408 14.572 8.808C14.516 9.2 14.488 9.6 14.488 10.008C14.488 10.352 14.62 10.524 14.884 10.524C15.18 10.524 15.48 10.456 15.784 10.32C16.088 10.184 16.384 10.02 16.672 9.828C16.96 9.628 17.224 9.432 17.464 9.24C17.704 9.04 17.908 8.872 18.076 8.736C18.244 8.6 18.364 8.532 18.436 8.532C18.5 8.532 18.556 8.552 18.604 8.592C18.652 8.632 18.676 8.696 18.676 8.784C18.676 8.864 18.596 9.008 18.436 9.216C18.276 9.424 18.064 9.66 17.8 9.924C17.536 10.188 17.24 10.444 16.912 10.692C16.584 10.94 16.248 11.144 15.904 11.304C15.56 11.464 15.232 11.544 14.92 11.544C14.68 11.544 14.46 11.472 14.26 11.328C14.068 11.176 13.912 10.92 13.792 10.56C13.68 10.2 13.624 9.704 13.624 9.072V8.772C13.232 9.42 12.82 10.012 12.388 10.548C11.964 11.084 11.54 11.512 11.116 11.832C10.7 12.152 10.304 12.312 9.92805 12.312ZM14.224 6.504C14.184 6.52 14.128 6.544 14.056 6.576C13.688 6.744 13.304 6.952 12.904 7.2C12.512 7.448 12.128 7.724 11.752 8.028C11.384 8.332 11.052 8.648 10.756 8.976C10.46 9.304 10.224 9.636 10.048 9.972C9.87205 10.308 9.78405 10.636 9.78405 10.956C9.78405 11.06 9.80405 11.14 9.84405 11.196C9.89205 11.252 9.97205 11.28 10.084 11.28C10.244 11.28 10.452 11.18 10.708 10.98C10.964 10.772 11.244 10.5 11.548 10.164C11.86 9.828 12.172 9.456 12.484 9.048C12.796 8.64 13.092 8.228 13.372 7.812C13.66 7.396 13.908 7.012 14.116 6.66C14.148 6.604 14.184 6.552 14.224 6.504ZM23.7691 12.636C23.2491 12.636 22.7691 12.512 22.3291 12.264C21.8971 12.016 21.5051 11.696 21.1531 11.304C20.8091 10.912 20.5011 10.492 20.2291 10.044C19.9651 9.588 19.7371 9.16 19.5451 8.76C19.4091 9.408 19.3011 9.932 19.2211 10.332C19.1491 10.732 19.0891 11.036 19.0411 11.244C19.0011 11.452 18.9611 11.592 18.9211 11.664C18.8811 11.736 18.8291 11.772 18.7651 11.772C18.5891 11.772 18.4211 11.676 18.2611 11.484C18.1011 11.292 18.0211 11.044 18.0211 10.74C18.0211 10.42 18.0771 9.996 18.1891 9.468C18.3011 8.932 18.4491 8.34 18.6331 7.692C18.8251 7.036 19.0451 6.36 19.2931 5.664C19.5411 4.96 19.7971 4.276 20.0611 3.612C20.3331 2.94 20.6051 2.328 20.8771 1.776C21.0131 1.504 21.1291 1.328 21.2251 1.248C21.3291 1.168 21.4531 1.128 21.5971 1.128C21.8291 1.128 21.9451 1.236 21.9451 1.452C21.9451 1.532 21.9211 1.62 21.8731 1.716C21.8331 1.812 21.7891 1.92 21.7411 2.04C21.5971 2.392 21.4371 2.788 21.2611 3.228C21.0931 3.668 20.9211 4.128 20.7451 4.608C20.5771 5.088 20.4171 5.564 20.2651 6.036C20.1131 6.508 19.9811 6.944 19.8691 7.344C20.2131 7.104 20.6171 6.864 21.0811 6.624C21.5451 6.384 22.0251 6.168 22.5211 5.976C23.0171 5.776 23.4851 5.616 23.9251 5.496C24.3651 5.376 24.7291 5.316 25.0171 5.316C25.1691 5.316 25.2851 5.364 25.3651 5.46C25.4531 5.548 25.4971 5.648 25.4971 5.76C25.4971 5.848 25.4691 5.936 25.4131 6.024C25.3651 6.104 25.2611 6.176 25.1011 6.24C24.5731 6.424 24.0491 6.612 23.5291 6.804C23.0091 6.988 22.4651 7.188 21.8971 7.404C21.3371 7.612 20.7251 7.86 20.0611 8.148C20.2691 8.5 20.5131 8.88 20.7931 9.288C21.0731 9.688 21.3731 10.068 21.6931 10.428C22.0131 10.78 22.3411 11.072 22.6771 11.304C23.0131 11.528 23.3491 11.64 23.6851 11.64C24.1251 11.64 24.5491 11.548 24.9571 11.364C25.3651 11.18 25.7411 10.956 26.0851 10.692C26.4371 10.428 26.7451 10.172 27.0091 9.924C27.2731 9.668 27.4811 9.468 27.6331 9.324C27.7131 9.252 27.7851 9.204 27.8491 9.18C27.9211 9.148 27.9851 9.132 28.0411 9.132C28.1531 9.132 28.2291 9.192 28.2691 9.312C28.3171 9.424 28.2771 9.548 28.1491 9.684C28.0531 9.796 27.9051 9.968 27.7051 10.2C27.5051 10.432 27.2611 10.688 26.9731 10.968C26.6931 11.24 26.3811 11.504 26.0371 11.76C25.7011 12.016 25.3371 12.224 24.9451 12.384C24.5611 12.552 24.1691 12.636 23.7691 12.636ZM32.3175 6.828C32.3175 7.084 32.2375 7.336 32.0775 7.584C31.9175 7.824 31.7055 8.056 31.4415 8.28C31.1775 8.496 30.8855 8.7 30.5655 8.892C30.2455 9.084 29.9255 9.252 29.6055 9.396C29.2855 9.54 28.9935 9.656 28.7295 9.744C28.6655 10.056 28.6335 10.332 28.6335 10.572C28.6335 10.724 28.6695 10.832 28.7415 10.896C28.8135 10.96 28.9255 10.992 29.0775 10.992C29.4135 10.992 29.7695 10.932 30.1455 10.812C30.5215 10.692 30.9055 10.536 31.2975 10.344C31.6895 10.152 32.0655 9.948 32.4255 9.732C32.7855 9.516 33.1135 9.312 33.4095 9.12C33.7135 8.928 33.9655 8.772 34.1655 8.652C34.3655 8.532 34.4975 8.472 34.5615 8.472C34.6575 8.472 34.7295 8.504 34.7775 8.568C34.8335 8.624 34.8615 8.692 34.8615 8.772C34.8615 8.836 34.7615 8.96 34.5615 9.144C34.3695 9.328 34.1095 9.544 33.7815 9.792C33.4535 10.032 33.0855 10.28 32.6775 10.536C32.2695 10.792 31.8455 11.032 31.4055 11.256C30.9735 11.48 30.5535 11.66 30.1455 11.796C29.7455 11.932 29.3855 12 29.0655 12C28.6495 12 28.3255 11.844 28.0935 11.532C27.8615 11.22 27.7455 10.736 27.7455 10.08C27.7455 9.64 27.8015 9.196 27.9135 8.748C28.0335 8.3 28.1935 7.872 28.3935 7.464C28.6015 7.048 28.8295 6.68 29.0775 6.36C29.3335 6.032 29.6015 5.776 29.8815 5.592C30.1615 5.4 30.4335 5.304 30.6975 5.304C31.2015 5.304 31.5975 5.444 31.8855 5.724C32.1735 6.004 32.3175 6.372 32.3175 6.828ZM28.9815 8.82C29.2295 8.668 29.4855 8.508 29.7495 8.34C30.0135 8.172 30.2575 8 30.4815 7.824C30.7055 7.648 30.8855 7.464 31.0215 7.272C31.1655 7.072 31.2375 6.868 31.2375 6.66C31.2375 6.364 31.0775 6.216 30.7575 6.216C30.5575 6.216 30.3455 6.344 30.1215 6.6C29.9055 6.848 29.6975 7.172 29.4975 7.572C29.2975 7.972 29.1255 8.388 28.9815 8.82ZM40.2679 12.312C39.9639 12.312 39.7119 12.172 39.5119 11.892C39.3199 11.604 39.2239 11.232 39.2239 10.776C39.2239 10.352 39.3279 9.932 39.5359 9.516C39.7519 9.1 40.0359 8.7 40.3879 8.316C40.7399 7.932 41.1239 7.58 41.5399 7.26C41.9559 6.932 42.3719 6.648 42.7879 6.408C43.2119 6.168 43.5999 5.98 43.9519 5.844C44.3039 5.708 44.5839 5.64 44.7919 5.64C44.9039 5.64 44.9959 5.664 45.0679 5.712C45.1399 5.752 45.1759 5.828 45.1759 5.94C45.1759 6.012 45.1479 6.08 45.0919 6.144C45.0999 6.144 45.1079 6.144 45.1159 6.144C45.2919 6.144 45.3799 6.248 45.3799 6.456C45.3799 6.528 45.3519 6.676 45.2959 6.9C45.2399 7.116 45.1759 7.388 45.1039 7.716C45.0319 8.044 44.9679 8.408 44.9119 8.808C44.8559 9.2 44.8279 9.6 44.8279 10.008C44.8279 10.352 44.9599 10.524 45.2239 10.524C45.5199 10.524 45.8199 10.456 46.1239 10.32C46.4279 10.184 46.7239 10.02 47.0119 9.828C47.2999 9.628 47.5639 9.432 47.8039 9.24C48.0439 9.04 48.2479 8.872 48.4159 8.736C48.5839 8.6 48.7039 8.532 48.7759 8.532C48.8399 8.532 48.8959 8.552 48.9439 8.592C48.9919 8.632 49.0159 8.696 49.0159 8.784C49.0159 8.864 48.9359 9.008 48.7759 9.216C48.6159 9.424 48.4039 9.66 48.1399 9.924C47.8759 10.188 47.5799 10.444 47.2519 10.692C46.9239 10.94 46.5879 11.144 46.2439 11.304C45.8999 11.464 45.5719 11.544 45.2599 11.544C45.0199 11.544 44.7999 11.472 44.5999 11.328C44.4079 11.176 44.2519 10.92 44.1319 10.56C44.0199 10.2 43.9639 9.704 43.9639 9.072V8.772C43.5719 9.42 43.1599 10.012 42.7279 10.548C42.3039 11.084 41.8799 11.512 41.4559 11.832C41.0399 12.152 40.6439 12.312 40.2679 12.312ZM44.5639 6.504C44.5239 6.52 44.4679 6.544 44.3959 6.576C44.0279 6.744 43.6439 6.952 43.2439 7.2C42.8519 7.448 42.4679 7.724 42.0919 8.028C41.7239 8.332 41.3919 8.648 41.0959 8.976C40.7999 9.304 40.5639 9.636 40.3879 9.972C40.2119 10.308 40.1239 10.636 40.1239 10.956C40.1239 11.06 40.1439 11.14 40.1839 11.196C40.2319 11.252 40.3119 11.28 40.4239 11.28C40.5839 11.28 40.7919 11.18 41.0479 10.98C41.3039 10.772 41.5839 10.5 41.8879 10.164C42.1999 9.828 42.5119 9.456 42.8239 9.048C43.1359 8.64 43.4319 8.228 43.7119 7.812C43.9999 7.396 44.2479 7.012 44.4559 6.66C44.4879 6.604 44.5239 6.552 44.5639 6.504ZM56.4273 12.576C56.1713 12.576 55.9033 12.512 55.6233 12.384C55.3513 12.264 55.1193 12.064 54.9273 11.784C54.7433 11.496 54.6513 11.116 54.6513 10.644C54.6513 10.092 54.6993 9.508 54.7953 8.892C54.8913 8.276 55.0153 7.66 55.1673 7.044C55.3273 6.42 55.5033 5.828 55.6953 5.268C55.8873 4.708 56.0793 4.208 56.2713 3.768C56.4713 3.328 56.6553 2.984 56.8233 2.736C56.9913 2.48 57.1313 2.352 57.2433 2.352C57.3953 2.352 57.5233 2.412 57.6273 2.532C57.7393 2.652 57.7953 2.82 57.7953 3.036C57.7953 3.124 57.7433 3.332 57.6393 3.66C57.5353 3.98 57.4033 4.384 57.2433 4.872C57.0833 5.36 56.9113 5.888 56.7273 6.456C56.5513 7.024 56.3833 7.596 56.2233 8.172C56.0633 8.748 55.9313 9.292 55.8273 9.804C55.7233 10.316 55.6713 10.752 55.6713 11.112C55.6713 11.216 55.6993 11.316 55.7553 11.412C55.8113 11.5 55.9033 11.544 56.0313 11.544C56.2073 11.544 56.4593 11.504 56.7873 11.424C57.1233 11.344 57.4873 11.248 57.8793 11.136C58.2713 11.016 58.6473 10.9 59.0073 10.788C59.3673 10.676 59.6713 10.58 59.9193 10.5C60.1673 10.42 60.3073 10.38 60.3393 10.38C60.4353 10.38 60.5153 10.408 60.5793 10.464C60.6433 10.512 60.6753 10.588 60.6753 10.692C60.6753 10.82 60.5793 10.968 60.3873 11.136C60.2033 11.304 59.9553 11.472 59.6433 11.64C59.3393 11.808 58.9993 11.96 58.6233 12.096C58.2473 12.24 57.8673 12.356 57.4833 12.444C57.1073 12.532 56.7553 12.576 56.4273 12.576ZM63.5116 12.12C63.0396 12.12 62.6676 11.94 62.3956 11.58C62.1236 11.22 61.9876 10.752 61.9876 10.176C61.9876 9.968 62.0156 9.748 62.0716 9.516C62.1356 9.276 62.2156 9.06 62.3116 8.868C62.2556 8.812 62.2116 8.736 62.1796 8.64C62.1476 8.536 62.1316 8.408 62.1316 8.256C62.1316 7.784 62.2116 7.352 62.3716 6.96C62.5316 6.568 62.7436 6.228 63.0076 5.94C63.2716 5.644 63.5636 5.416 63.8836 5.256C64.2116 5.096 64.5436 5.016 64.8796 5.016C65.4316 5.016 65.8796 5.216 66.2236 5.616C66.5676 6.008 66.7396 6.608 66.7396 7.416C66.7396 7.84 66.6756 8.272 66.5476 8.712C66.4276 9.152 66.2596 9.576 66.0436 9.984C65.8356 10.392 65.5916 10.756 65.3116 11.076C65.0396 11.396 64.7476 11.652 64.4356 11.844C64.1316 12.028 63.8236 12.12 63.5116 12.12ZM63.1036 8.46C63.1516 8.524 63.1756 8.608 63.1756 8.712C63.1756 8.832 63.1516 8.952 63.1036 9.072C63.0636 9.192 63.0196 9.356 62.9716 9.564C62.9236 9.772 62.8996 10.068 62.8996 10.452C62.8996 10.836 63.0516 11.028 63.3556 11.028C63.6916 11.028 64.0036 10.896 64.2916 10.632C64.5796 10.36 64.8356 10.012 65.0596 9.588C65.2836 9.164 65.4556 8.712 65.5756 8.232C65.7036 7.744 65.7676 7.284 65.7676 6.852C65.7676 6.572 65.7156 6.376 65.6116 6.264C65.5076 6.144 65.3196 6.084 65.0476 6.084C64.7676 6.084 64.4756 6.18 64.1716 6.372C63.8756 6.556 63.6276 6.808 63.4276 7.128C63.2276 7.448 63.1276 7.808 63.1276 8.208C63.1276 8.296 63.1196 8.38 63.1036 8.46ZM69.6757 12.12C69.2037 12.12 68.8317 11.94 68.5597 11.58C68.2877 11.22 68.1517 10.752 68.1517 10.176C68.1517 9.968 68.1797 9.748 68.2357 9.516C68.2997 9.276 68.3797 9.06 68.4757 8.868C68.4197 8.812 68.3757 8.736 68.3437 8.64C68.3117 8.536 68.2957 8.408 68.2957 8.256C68.2957 7.784 68.3757 7.352 68.5357 6.96C68.6957 6.568 68.9077 6.228 69.1717 5.94C69.4357 5.644 69.7277 5.416 70.0477 5.256C70.3757 5.096 70.7077 5.016 71.0437 5.016C71.5957 5.016 72.0437 5.216 72.3877 5.616C72.7317 6.008 72.9037 6.608 72.9037 7.416C72.9037 7.84 72.8397 8.272 72.7117 8.712C72.5917 9.152 72.4237 9.576 72.2077 9.984C71.9997 10.392 71.7557 10.756 71.4757 11.076C71.2037 11.396 70.9117 11.652 70.5997 11.844C70.2957 12.028 69.9877 12.12 69.6757 12.12ZM69.2677 8.46C69.3157 8.524 69.3397 8.608 69.3397 8.712C69.3397 8.832 69.3157 8.952 69.2677 9.072C69.2277 9.192 69.1837 9.356 69.1357 9.564C69.0877 9.772 69.0637 10.068 69.0637 10.452C69.0637 10.836 69.2157 11.028 69.5197 11.028C69.8557 11.028 70.1677 10.896 70.4557 10.632C70.7437 10.36 70.9997 10.012 71.2237 9.588C71.4477 9.164 71.6197 8.712 71.7397 8.232C71.8677 7.744 71.9317 7.284 71.9317 6.852C71.9317 6.572 71.8797 6.376 71.7757 6.264C71.6717 6.144 71.4837 6.084 71.2117 6.084C70.9317 6.084 70.6397 6.18 70.3357 6.372C70.0397 6.556 69.7917 6.808 69.5917 7.128C69.3917 7.448 69.2917 7.808 69.2917 8.208C69.2917 8.296 69.2837 8.38 69.2677 8.46ZM80.0894 12.636C79.5694 12.636 79.0894 12.512 78.6494 12.264C78.2174 12.016 77.8254 11.696 77.4734 11.304C77.1294 10.912 76.8214 10.492 76.5494 10.044C76.2854 9.588 76.0574 9.16 75.8654 8.76C75.7294 9.408 75.6214 9.932 75.5414 10.332C75.4694 10.732 75.4094 11.036 75.3614 11.244C75.3214 11.452 75.2814 11.592 75.2414 11.664C75.2014 11.736 75.1494 11.772 75.0854 11.772C74.9094 11.772 74.7414 11.676 74.5814 11.484C74.4214 11.292 74.3414 11.044 74.3414 10.74C74.3414 10.42 74.3974 9.996 74.5094 9.468C74.6214 8.932 74.7694 8.34 74.9534 7.692C75.1454 7.036 75.3654 6.36 75.6134 5.664C75.8614 4.96 76.1174 4.276 76.3814 3.612C76.6534 2.94 76.9254 2.328 77.1974 1.776C77.3334 1.504 77.4494 1.328 77.5454 1.248C77.6494 1.168 77.7734 1.128 77.9174 1.128C78.1494 1.128 78.2654 1.236 78.2654 1.452C78.2654 1.532 78.2414 1.62 78.1934 1.716C78.1534 1.812 78.1094 1.92 78.0614 2.04C77.9174 2.392 77.7574 2.788 77.5814 3.228C77.4134 3.668 77.2414 4.128 77.0654 4.608C76.8974 5.088 76.7374 5.564 76.5854 6.036C76.4334 6.508 76.3014 6.944 76.1894 7.344C76.5334 7.104 76.9374 6.864 77.4014 6.624C77.8654 6.384 78.3454 6.168 78.8414 5.976C79.3374 5.776 79.8054 5.616 80.2454 5.496C80.6854 5.376 81.0494 5.316 81.3374 5.316C81.4894 5.316 81.6054 5.364 81.6854 5.46C81.7734 5.548 81.8174 5.648 81.8174 5.76C81.8174 5.848 81.7894 5.936 81.7334 6.024C81.6854 6.104 81.5814 6.176 81.4214 6.24C80.8934 6.424 80.3694 6.612 79.8494 6.804C79.3294 6.988 78.7854 7.188 78.2174 7.404C77.6574 7.612 77.0454 7.86 76.3814 8.148C76.5894 8.5 76.8334 8.88 77.1134 9.288C77.3934 9.688 77.6934 10.068 78.0134 10.428C78.3334 10.78 78.6614 11.072 78.9974 11.304C79.3334 11.528 79.6694 11.64 80.0054 11.64C80.4454 11.64 80.8694 11.548 81.2774 11.364C81.6854 11.18 82.0614 10.956 82.4054 10.692C82.7574 10.428 83.0654 10.172 83.3294 9.924C83.5934 9.668 83.8014 9.468 83.9534 9.324C84.0334 9.252 84.1054 9.204 84.1694 9.18C84.2414 9.148 84.3054 9.132 84.3614 9.132C84.4734 9.132 84.5494 9.192 84.5894 9.312C84.6374 9.424 84.5974 9.548 84.4694 9.684C84.3734 9.796 84.2254 9.968 84.0254 10.2C83.8254 10.432 83.5814 10.688 83.2934 10.968C83.0134 11.24 82.7014 11.504 82.3574 11.76C82.0214 12.016 81.6574 12.224 81.2654 12.384C80.8814 12.552 80.4894 12.636 80.0894 12.636Z" fill="#A15AFF"/>
<path d="M3.91175 32.7399C4.442 32.8955 4.89985 33.0387 5.36255 33.1643C11.629 34.8651 18.3989 32.4429 22.3353 27.1002C23.2129 25.909 23.9152 24.6234 24.4483 23.2431C24.638 22.7521 24.5036 22.3505 24.1076 22.1904C23.7029 22.0269 23.3221 22.2427 23.1239 22.748C20.6771 28.9861 14.5395 32.8306 8.01556 32.202C6.88737 32.0933 5.78525 31.8495 4.71669 31.4687C4.6421 31.4421 4.57146 31.4044 4.43976 31.3454C4.59629 31.2646 4.70369 31.2044 4.81474 31.1525C6.09447 30.5538 7.37646 29.9602 8.65404 29.3568C9.15381 29.1208 9.29303 28.6019 8.97841 28.2112C8.75989 27.9399 8.44569 27.8863 8.04935 28.0702C6.7134 28.6899 5.37941 29.3141 4.04479 29.9369C3.47435 30.2031 2.90246 30.4661 2.33443 30.7376C1.84563 30.9712 1.7128 31.3236 1.93354 31.8218C2.78009 33.7325 3.63023 35.6414 4.48278 37.5492C4.6845 38.0006 5.066 38.1716 5.44959 37.9994C5.84601 37.8214 5.97467 37.4065 5.76731 36.9379C5.20973 35.678 4.6474 34.4202 4.08768 33.1613C4.0353 33.0434 3.98808 32.9232 3.91175 32.7399Z" fill="#A15AFF"/>
</svg>
