<svg width="25" height="18" viewBox="0 0 25 18" fill="none" xmlns="http://www.w3.org/2000/svg">
<path d="M0.00115457 5.07739C1.08009 5.73126 2.09877 6.34727 3.11613 6.96544C5.83109 8.61506 8.55098 10.2567 11.2562 11.922C11.9292 12.3363 12.534 12.3442 13.2104 11.9299C16.8298 9.71307 20.461 7.51549 24.0884 5.31157C24.1951 5.24669 24.304 5.18526 24.4522 5.09871C24.4627 5.23714 24.4776 5.34222 24.4777 5.44731C24.4789 8.42105 24.4828 11.3948 24.4772 14.3685C24.4733 16.4128 22.9057 17.9902 20.8501 17.9934C15.1151 18.0023 9.38 18.0017 3.64493 17.9939C1.56769 17.9911 0.0052302 16.4162 0.00227862 14.3457C-0.00207993 11.2833 0.00115457 8.22097 0.00115457 5.07739Z" fill="white"/>
<path d="M12.2564 0.00195108C15.1238 0.0019282 17.9912 -0.00348617 20.8586 0.00410157C22.411 0.00820429 23.772 0.992483 24.2694 2.42392C24.3671 2.70505 24.3375 2.85225 24.0547 3.0234C20.2061 5.35234 16.3668 7.69664 12.53 10.0449C12.3183 10.1745 12.1682 10.1797 11.9533 10.0482C8.10642 7.69212 4.25595 5.34184 0.398821 3.0025C0.152555 2.85315 0.108182 2.72675 0.194986 2.46426C0.672064 1.02164 2.053 0.00857033 3.61603 0.00424646C6.49614 -0.00372257 9.3763 0.00197395 12.2564 0.00195108Z" fill="white"/>
</svg>
