<svg width="61" height="61" viewBox="0 0 61 61" fill="none" xmlns="http://www.w3.org/2000/svg">
<path d="M29.4648 3.18703e-05H31.376C32.6105 0.484157 33.5071 1.40236 34.4203 2.31716C42.7191 10.6305 51.0275 18.934 59.3354 27.2382C59.8624 27.7649 60.3743 28.2966 60.6784 28.9946C60.7244 29.1 60.7423 29.4239 61 29.1462V29.4648C60.9078 29.4112 60.8683 29.4616 60.8596 29.5445C60.8479 29.6551 60.8805 29.7465 61 29.7833V31.5353C60.3285 33.0838 59.0468 34.1291 57.8971 35.2797C50.081 43.1024 42.2562 50.9164 34.4457 58.7448C33.5331 59.6595 32.6363 60.5703 31.376 61H29.624C29.573 60.9625 29.5219 60.925 29.4709 60.8875C29.4689 60.925 29.4668 60.9625 29.4647 61H29.1462C29.1706 60.9897 29.1962 60.9814 29.2191 60.9685C29.2379 60.958 29.2535 60.942 29.2705 60.9284C28.8246 60.4388 28.1619 60.2658 27.6927 59.7796C26.257 58.2918 24.7654 56.8581 23.3028 55.3961C16.3077 48.404 9.31853 41.406 2.31699 34.4204C1.40188 33.5074 0.484141 32.6105 0 31.376V29.4648C0.383862 28.8137 0.654552 28.1064 1.21402 27.549C7.13523 21.6502 13.0446 15.7394 18.9433 9.81797C19.3075 9.45232 19.5035 9.43762 19.8713 9.81238C21.8415 11.8195 23.8292 13.8097 25.8388 15.7773C26.2157 16.1464 26.2668 16.4557 26.1371 16.9523C25.6064 18.983 26.4296 21.0374 28.2265 22.0799C28.7255 22.3693 28.8504 22.6728 28.8487 23.1995C28.8325 28.2674 28.8331 33.3354 28.848 38.4032C28.8495 38.9235 28.7465 39.2455 28.2403 39.5373C26.4049 40.5955 25.5967 42.6769 26.1321 44.7346C26.6345 46.666 28.4328 48.0862 30.437 48.1344C32.6079 48.1867 34.3829 46.9609 35.0546 44.9457C35.7147 42.9652 34.9952 40.8443 33.2083 39.6548C32.7999 39.383 32.6741 39.0967 32.6757 38.6235C32.6924 33.5821 32.6847 28.5407 32.6911 23.4993C32.6913 23.3061 32.5935 23.0776 32.8349 22.8847C33.0257 23.0627 33.2207 23.2342 33.4041 23.4173C35.0941 25.1045 36.7726 26.8034 38.4781 28.4747C38.8525 28.8416 38.9807 29.1469 38.8288 29.6959C38.0147 32.6385 40.5424 35.7188 43.5356 35.4853C46.372 35.264 48.3214 32.8528 47.9281 30.0522C47.5676 27.4851 45.0404 25.7673 42.348 26.2759C41.9581 26.3496 41.675 26.3316 41.3632 26.0141C39.3929 24.0073 37.3963 22.0261 35.4037 20.0412C35.169 19.8074 35.0599 19.6189 35.1397 19.2261C35.8575 15.6922 33.0967 12.9115 29.5507 13.592C29.172 13.6646 28.9727 13.5835 28.7302 13.3395C26.6541 11.2505 24.5754 9.16399 22.4789 7.09544C22.1546 6.7754 22.1609 6.593 22.4827 6.27953C23.7941 5.00218 25.0867 3.70522 26.3711 2.4006C27.2965 1.46058 28.1941 0.492013 29.4648 3.18703e-05Z" fill="#848484"/>
</svg>
