<svg width="28" height="28" viewBox="0 0 28 28" fill="none" xmlns="http://www.w3.org/2000/svg">
<path d="M14.0222 3.50797e-06C21.7426 0.00542031 28.0063 6.2892 28 14.0227C27.9937 21.7441 21.7113 28.0058 13.9764 28C6.2363 27.9942 -0.0164106 21.7012 3.23561e-05 13.9334C0.0163003 6.24287 6.30437 -0.00540455 14.0222 3.50797e-06ZM6.56848 10.3476C6.67269 10.7959 6.72525 11.2642 6.8891 11.6896C8.56987 16.0531 11.6298 19.076 15.9187 20.8742C16.8409 21.2609 17.8049 21.4563 18.8136 21.1835C19.7416 20.9325 20.411 20.317 21.0522 19.6531C21.482 19.208 21.4863 18.9523 21.0439 18.505C20.2755 17.728 19.503 16.955 18.7275 16.1851C18.2821 15.7429 18.0212 15.7437 17.583 16.1826C17.1505 16.6156 16.7331 17.0639 16.2937 17.4897C15.7741 17.9931 15.1671 18.0592 14.591 17.6527C12.9714 16.5099 11.5629 15.1469 10.4028 13.5362C9.97403 12.9408 10.0333 12.3297 10.5493 11.8032C11.0083 11.3351 11.4818 10.8812 11.9392 10.4115C12.2702 10.0716 12.2862 9.74658 11.9622 9.41502C11.1373 8.57096 10.3034 7.73539 9.45935 6.91051C9.13908 6.59751 8.8325 6.61454 8.50133 6.93102C8.19597 7.22283 7.89801 7.52353 7.61259 7.83481C6.96684 8.53907 6.63384 9.37004 6.56848 10.3476Z" fill="white"/>
</svg>
