<svg width="67" height="60" viewBox="0 0 67 60" fill="none" xmlns="http://www.w3.org/2000/svg">
<path fill-rule="evenodd" clip-rule="evenodd" d="M33.5007 5C24.5665 5 18.9842 10.5559 16.7497 21.6678C20.1001 16.1118 24.0086 14.0288 28.475 15.4169C31.0233 16.2088 32.8455 18.5087 34.8608 21.055C38.1456 25.2014 41.9477 30 50.2503 30C59.1831 30 64.7668 24.4441 67 13.3339C63.6509 18.8898 59.7424 20.9729 55.276 19.5831C52.7264 18.7912 50.9041 16.4913 48.8889 13.9466C45.6041 9.79695 41.8033 5 33.5007 5ZM16.7497 30C7.81686 30 2.2332 35.5559 0 46.6678C3.35046 41.1118 7.25889 39.0288 11.724 40.4169C14.2736 41.2088 16.0959 43.5087 18.1111 46.055C21.3959 50.2014 25.1967 55 33.5007 55C42.4335 55 48.0171 49.4457 50.2503 38.3339C46.8999 43.8898 42.9914 45.9729 38.525 44.5847C35.9767 43.7912 34.1545 41.4913 32.1392 38.9466C28.8544 34.8002 25.0523 30 16.7497 30Z" fill="#848484"/>
</svg>
