<svg width="24" height="17" viewBox="0 0 24 17" fill="none" xmlns="http://www.w3.org/2000/svg">
<path d="M2.82029 11.5257C3.35054 11.6813 3.80839 11.8245 4.27109 11.9501C10.5375 13.6509 17.3074 11.2287 21.2438 5.88593C22.1214 4.69474 22.8237 3.40912 23.3569 2.02885C23.5465 1.53784 23.4122 1.13623 23.0161 0.97617C22.6114 0.812621 22.2306 1.02849 22.0324 1.53381C19.5856 7.77186 13.448 11.6164 6.9241 10.9878C5.79591 10.8791 4.69378 10.6353 3.62523 10.2544C3.55064 10.2279 3.48 10.1902 3.3483 10.1312C3.50483 10.0503 3.61223 9.99018 3.72328 9.93823C5.00301 9.3396 6.285 8.74598 7.56258 8.1426C8.06235 7.90656 8.20157 7.38765 7.88694 6.99698C7.66843 6.72563 7.35423 6.67209 6.95789 6.85595C5.62194 7.4757 4.28795 8.09989 2.95333 8.72266C2.38288 8.98884 1.81099 9.25188 1.24297 9.52337C0.754173 9.75699 0.621336 10.1094 0.842078 10.6076C1.68863 12.5182 2.53877 14.4272 3.39132 16.335C3.59303 16.7864 3.97454 16.9573 4.35813 16.7851C4.75455 16.6071 4.88321 16.1923 4.67585 15.7237C4.11827 14.4638 3.55594 13.206 2.99622 11.947C2.94384 11.8292 2.89662 11.709 2.82029 11.5257Z" fill="white"/>
</svg>
