<svg width="61" height="60" viewBox="0 0 61 60" fill="none" xmlns="http://www.w3.org/2000/svg">
<path d="M36.1049 44.3185C37.0845 44.1465 38.0384 43.9803 38.9919 43.8112C40.7486 43.4998 42.372 42.8319 43.9158 41.9466C45.4068 41.0917 46.6769 39.9909 47.6089 38.53C48.416 37.2647 48.9352 35.8737 49.3162 34.4212C49.8339 32.447 49.9697 30.4393 49.8982 28.4112C49.8062 25.8024 48.9437 23.475 47.2763 21.4791C46.9078 21.038 46.8418 20.6997 47.0338 20.154C47.4181 19.0616 47.5097 17.9148 47.4258 16.7487C47.3324 15.4524 47.0505 14.207 46.5672 13.0077C46.5123 12.8712 46.3445 12.723 46.2033 12.6893C45.3797 12.4926 44.5908 12.7339 43.8252 12.9886C42.0646 13.5742 40.395 14.3751 38.8682 15.4338C38.3188 15.8148 37.8282 15.843 37.2262 15.6956C36.3098 15.4712 35.3852 15.2284 34.4507 15.1429C32.8116 14.9931 31.1623 14.8911 29.5172 14.89C27.6703 14.8887 25.8433 15.1769 24.0403 15.5905C23.9213 15.6177 23.8015 15.6524 23.6909 15.7032C23.0056 16.0173 22.4764 15.6761 21.9374 15.3083C20.3216 14.2059 18.5276 13.4731 16.6865 12.8762C16.0766 12.6785 15.383 12.7318 14.7262 12.7034C14.6187 12.6988 14.4456 12.8434 14.4009 12.9578C13.6079 14.9919 13.2823 17.0851 13.698 19.2551C13.7859 19.7139 13.908 20.1741 14.0842 20.6046C14.189 20.8605 14.1063 20.9929 13.9626 21.1533C12.991 22.2377 12.2542 23.465 11.771 24.8435C11.3261 26.1128 11.0834 27.4149 11.068 28.7686C11.048 30.5125 11.1493 32.2414 11.5466 33.9416C12.0105 35.9274 12.7367 37.8001 14.0147 39.4131C15.1884 40.8945 16.7365 41.8633 18.4079 42.6734C19.7925 43.3447 21.269 43.6915 22.7566 43.9988C23.4395 44.1399 24.1405 44.1922 24.9066 44.2945C24.7677 44.4591 24.6642 44.5839 24.5586 44.7067C23.8105 45.5765 23.313 46.5791 23.1515 47.7137C23.0671 48.3061 22.7705 48.5542 22.2481 48.7353C20.9892 49.1717 19.6948 49.286 18.3912 49.1708C17.2942 49.0738 16.3911 48.4854 15.5816 47.7535C14.851 47.0928 14.3893 46.2303 13.8412 45.4312C12.9763 44.17 11.787 43.3288 10.3541 42.8694C9.7528 42.6765 9.1048 42.6083 8.46696 42.8307C8.12416 42.9502 7.98448 43.183 8.20466 43.4672C8.50947 43.8605 8.81636 44.313 9.22988 44.5478C10.2091 45.1038 10.9189 45.9041 11.4745 46.8396C11.9811 47.6928 12.4126 48.5965 12.8157 49.5057C13.3279 50.6611 14.1593 51.4792 15.2396 52.0771C16.3342 52.683 17.5365 52.8053 18.7492 52.937C20.1215 53.086 21.4694 52.9807 22.8556 52.7075C22.8765 52.8682 22.9091 53.0098 22.911 53.1519C22.9326 54.8403 22.9544 56.5288 22.9664 58.2173C22.976 59.5596 22.0037 60.3281 20.7539 59.8643C19.2886 59.3206 17.8284 58.7346 16.4345 58.0291C13.1064 56.3447 10.2344 54.0442 7.7716 51.2251C5.81378 48.9841 4.16166 46.5415 2.88794 43.8392C2.05497 42.0721 1.41259 40.2428 0.934555 38.3467C0.136707 35.182 -0.139107 31.968 0.0643996 28.7204C0.154069 27.2897 0.319498 25.8474 0.632304 24.4518C1.00094 22.8071 1.492 21.1801 2.06356 19.5944C3.04281 16.8776 4.48926 14.4028 6.22079 12.1022C7.73471 10.0908 9.47443 8.29772 11.432 6.71919C13.2232 5.27482 15.1463 4.03304 17.2119 3.039C18.4672 2.43502 19.7629 1.88603 21.0894 1.47141C22.5122 1.02675 23.9841 0.726701 25.4492 0.438683C27.7561 -0.0145286 30.093 -0.0755933 32.4341 0.0709022C34.0782 0.173738 35.7026 0.401586 37.3165 0.764294C39.0467 1.15316 40.7178 1.70224 42.3467 2.38629C44.3831 3.24159 46.3182 4.30236 48.0832 5.63554C49.3705 6.6077 50.6206 7.64173 51.8021 8.74119C53.3143 10.1486 54.5978 11.7694 55.7459 13.4946C57.0932 15.5189 58.2631 17.6411 59.049 19.9505C59.5448 21.4074 59.9929 22.8882 60.3386 24.3873C60.6073 25.5521 60.7019 26.7595 60.8436 27.9518C61.1148 30.2339 61.0086 32.518 60.7145 34.7846C60.5338 36.1777 60.2124 37.5562 59.8895 38.9258C59.403 40.9883 58.606 42.9456 57.6249 44.8106C55.8692 48.1482 53.6221 51.1176 50.8274 53.6522C48.5952 55.6764 46.1413 57.3613 43.3873 58.5808C42.3701 59.0312 41.3517 59.4917 40.3008 59.8483C39.1545 60.2373 38.1003 59.7834 38.0758 58.3258C38.06 57.3823 38.078 56.4384 38.0694 55.4946C38.0489 53.2353 38.0747 50.9738 37.9789 48.7176C37.9121 47.1423 37.3954 45.6939 36.2469 44.5434C36.2035 44.4999 36.1662 44.4498 36.1299 44.4C36.1171 44.3824 36.1158 44.3561 36.1049 44.3185Z" fill="#848484"/>
</svg>
