<svg width="99" height="89" viewBox="0 0 99 89" fill="none" xmlns="http://www.w3.org/2000/svg">
<g id="Group 39">
<path id="Vector" d="M49.6945 78.113C49.5221 78.2751 49.3836 78.4036 49.2471 78.534C46.5696 81.0914 43.6946 83.3892 40.5181 85.2866C38.1817 86.6821 35.7389 87.8337 33.0903 88.4888C31.4839 88.8861 29.8597 89.0894 28.2005 88.9095C25.9408 88.6644 24.0345 87.7351 22.5428 85.9825C21.3517 84.583 20.6074 82.947 20.0886 81.1961C19.568 79.4387 19.3188 77.6355 19.1973 75.8085C19.0658 73.8321 19.1396 71.8608 19.3197 69.8939C19.5635 67.2307 20.0362 64.6044 20.6543 62.0045C20.6885 61.8603 20.7199 61.7154 20.7486 61.57C20.7538 61.5438 20.7393 61.5137 20.7252 61.4391C20.5827 61.3927 20.4197 61.3362 20.2546 61.2864C16.7543 60.2311 13.3745 58.8797 10.1827 57.0734C7.80128 55.7256 5.57684 54.1603 3.66896 52.1692C2.47515 50.9233 1.45971 49.5512 0.767419 47.9512C-0.31075 45.4593 -0.247333 42.9932 0.922794 40.5513C1.68206 38.9668 2.76265 37.6254 4.01251 36.4155C5.90546 34.5831 8.07412 33.1452 10.3777 31.905C13.4745 30.2377 16.7392 28.9934 20.0985 27.9904C20.3222 27.9236 20.5449 27.8535 20.8043 27.7737C20.7873 27.6306 20.7849 27.5007 20.7552 27.3777C20.2696 25.3733 19.8754 23.3508 19.5968 21.3066C19.1748 18.2092 19.017 15.1006 19.3152 11.9822C19.5082 9.96548 19.9093 7.99271 20.6885 6.11332C21.2443 4.77268 21.9771 3.54866 23.0033 2.51646C24.3229 1.18915 25.9242 0.449003 27.7548 0.1965C29.8795 -0.0965966 31.9403 0.243669 33.9665 0.875365C36.6827 1.72213 39.1735 3.04295 41.5528 4.59233C44.2903 6.37494 46.8061 8.44187 49.1797 10.6898C49.2957 10.7996 49.4134 10.9075 49.5535 11.0378C49.7042 10.8961 49.8319 10.7776 49.9578 10.6573C52.8807 7.86436 55.9979 5.32801 59.4948 3.2951C61.539 2.10676 63.6682 1.11735 65.9588 0.512567C67.3013 0.158098 68.6618 -0.0396957 70.0538 0.0066842C72.8801 0.100847 75.1467 1.27122 76.8175 3.58846C77.9068 5.09927 78.5715 6.80384 79.0246 8.60082C79.4357 10.231 79.6523 11.8912 79.7438 13.5691C79.9543 17.4324 79.5473 21.2453 78.8169 25.0305C78.6568 25.86 78.4631 26.683 78.286 27.5093C78.2678 27.5943 78.2578 27.6812 78.2356 27.8188C78.4205 27.8799 78.5946 27.9418 78.7712 27.9952C82.0412 28.9843 85.226 30.1916 88.2572 31.7899C90.6496 33.0514 92.9075 34.5133 94.8853 36.3852C95.9733 37.4149 96.9413 38.5466 97.6925 39.8548C98.3709 41.0361 98.8386 42.291 98.9652 43.6616C99.12 45.3363 98.7557 46.9055 98.0217 48.3987C97.3214 49.8234 96.3614 51.0549 95.2563 52.1769C93.4699 53.9905 91.413 55.4368 89.2199 56.6943C85.9994 58.541 82.5826 59.9191 79.0522 61.0242C78.8842 61.0768 78.7178 61.1348 78.5517 61.1935C78.5262 61.2026 78.5067 61.2289 78.4487 61.2767C78.4806 61.4247 78.5145 61.5955 78.5544 61.7648C79.4593 65.6045 80.0034 69.4913 79.9753 73.4442C79.9562 76.1254 79.6718 78.7763 78.8556 81.3455C78.4178 82.7235 77.8354 84.0318 77.0054 85.2191C75.29 87.673 72.9347 88.9079 69.9745 88.9945C67.9164 89.0546 65.9489 88.6037 64.0305 87.9004C61.1502 86.8445 58.5344 85.2926 56.0491 83.5026C54.0001 82.0266 52.0818 80.3907 50.2527 78.6463C50.0824 78.484 49.9123 78.3213 49.6945 78.113ZM49.0159 60.6863C51.4293 60.6175 53.5582 60.5646 55.6864 60.4923C56.5079 60.4644 57.3273 60.3786 58.1488 60.3483C58.4588 60.3369 58.6516 60.2328 58.825 59.9665C61.9929 55.1007 64.8738 50.0693 67.4207 44.8429C67.5604 44.5563 67.5547 44.3341 67.4087 44.0595C66.3178 42.0073 65.2653 39.9339 64.1502 37.8955C62.4941 34.8677 60.6891 31.93 58.7823 29.0565C58.6364 28.8368 58.4884 28.6953 58.1947 28.6742C55.5566 28.4853 52.9153 28.384 50.2715 28.3673C47.2012 28.3478 44.1339 28.4441 41.0698 28.6569C40.6444 28.6865 40.3865 28.8203 40.1473 29.1808C36.993 33.9336 34.1692 38.8772 31.6822 44.0186C31.5108 44.3729 31.5041 44.6476 31.6781 45.0061C34.1849 50.1711 37.0321 55.135 40.2134 59.9054C40.4335 60.2355 40.6742 60.3889 41.0648 60.4017C43.8094 60.4915 46.5536 60.5965 49.0159 60.6863ZM21.9071 57.3103C21.966 57.1464 22.0258 56.9981 22.073 56.8458C23.3326 52.7913 24.8619 48.8419 26.6111 44.9792C26.7588 44.6528 26.765 44.3932 26.6158 44.0645C24.8763 40.2298 23.3567 36.3084 22.1093 32.2811C22.0706 32.1562 22.0179 32.0358 21.9664 31.8995C21.8629 31.9157 21.7762 31.9197 21.695 31.9433C18.2282 32.9531 14.8642 34.2231 11.7069 36.0078C9.828 37.0699 8.0598 38.2886 6.54631 39.8526C5.79251 40.6315 5.13544 41.4832 4.66671 42.4726C4.07237 43.727 4.05172 44.985 4.61683 46.2568C4.96271 47.0352 5.41947 47.7399 5.95708 48.3935C7.34443 50.0803 9.04098 51.3975 10.8687 52.5502C14.2073 54.6559 17.8217 56.1264 21.5816 57.2551C21.6766 57.2836 21.7783 57.2892 21.9071 57.3103ZM24.8785 62.5059C24.8226 62.7043 24.775 62.8432 24.7446 62.986C24.519 64.0444 24.2709 65.0988 24.0786 66.1635C23.4912 69.4147 23.1662 72.6864 23.4206 75.9961C23.5334 77.4648 23.7614 78.913 24.2164 80.3172C24.5382 81.3103 24.9621 82.2517 25.6121 83.0771C26.3244 83.9813 27.2489 84.4901 28.3779 84.6553C29.4262 84.8087 30.4582 84.7109 31.4854 84.5027C33.4026 84.114 35.1914 83.3697 36.9142 82.4561C40.494 80.5575 43.6406 78.063 46.5595 75.2583C46.6112 75.2087 46.6515 75.147 46.7194 75.0634C46.6068 74.9352 46.5037 74.814 46.3967 74.6964C44.7158 72.8486 43.1 70.9439 41.579 68.96C40.5176 67.5757 39.4911 66.1641 38.4557 64.7597C38.3092 64.5611 38.1707 64.4238 37.8959 64.401C36.7256 64.3034 35.557 64.1835 34.3895 64.0558C31.3517 63.7232 28.339 63.2302 25.349 62.5945C25.2073 62.5643 25.0642 62.5406 24.8785 62.5059ZM74.3671 62.3073C74.1485 62.3516 74.0051 62.3779 73.863 62.4097C70.6217 63.1353 67.351 63.6835 64.0519 64.0578C63.133 64.162 62.213 64.2574 61.2927 64.3481C61.0432 64.3726 60.8686 64.4669 60.7189 64.6853C58.2993 68.2149 55.705 71.6062 52.856 74.7951C52.7819 74.8781 52.7256 74.9771 52.6566 75.075C52.7367 75.1626 52.7926 75.2307 52.8556 75.2914C54.6751 77.0458 56.5853 78.6911 58.6412 80.1578C60.7476 81.6603 62.9551 82.9805 65.386 83.8821C66.8135 84.4116 68.2731 84.7738 69.812 84.7534C71.4693 84.7316 72.7512 84.0476 73.6623 82.6454C74.1742 81.8574 74.5479 81.0067 74.8348 80.1138C75.5269 77.9597 75.7512 75.7345 75.7758 73.4865C75.8103 70.3426 75.4193 67.2407 74.7831 64.168C74.6576 63.5615 74.5133 62.9588 74.3671 62.3073ZM46.6303 14.0242C46.4829 13.9133 46.3676 13.843 46.2715 13.752C44.4678 12.045 42.5731 10.45 40.5456 9.02052C38.4438 7.53856 36.2452 6.23098 33.8368 5.31609C32.2603 4.71718 30.6501 4.29293 28.9428 4.34474C27.3191 4.3941 26.0645 5.0763 25.2107 6.48348C25.0803 6.69837 24.9543 6.91685 24.8413 7.14139C24.4332 7.95247 24.1511 8.8101 23.9426 9.69307C23.3153 12.349 23.2653 15.0436 23.4491 17.7485C23.6387 20.5376 24.1087 23.2843 24.7478 26.0024C24.8011 26.2289 24.8691 26.4518 24.9342 26.6907C25.0859 26.6704 25.2013 26.6602 25.3147 26.6389C27.4212 26.2437 29.5203 25.8018 31.6357 25.4642C33.5919 25.152 35.5634 24.9322 37.533 24.7156C37.9862 24.6658 38.2642 24.5118 38.5281 24.1367C40.9136 20.7459 43.4861 17.5058 46.2742 14.4426C46.3717 14.3355 46.4624 14.2219 46.6303 14.0242ZM74.1102 26.7476C74.1533 26.6372 74.1891 26.5719 74.2045 26.5019C74.3724 25.7344 74.5532 24.9693 74.7 24.1975C75.3757 20.6449 75.7751 17.0691 75.5288 13.4437C75.4219 11.8701 75.1909 10.3167 74.7188 8.80896C74.3756 7.71277 73.9169 6.67233 73.1818 5.77726C72.5484 5.00598 71.7566 4.50869 70.7694 4.34159C69.6645 4.15457 68.5748 4.259 67.4919 4.50422C65.6271 4.92655 63.8952 5.69221 62.2277 6.61368C58.6957 8.5654 55.5946 11.0971 52.692 13.8923C52.6323 13.9497 52.5926 14.0283 52.54 14.1022C52.6208 14.1988 52.684 14.28 52.7529 14.3558C54.4233 16.1934 56.0214 18.0936 57.5233 20.0736C58.5864 21.4752 59.6135 22.9046 60.65 24.3266C60.7957 24.5265 60.937 24.6664 61.2084 24.6922C62.2606 24.7922 63.311 24.9122 64.3603 25.0398C66.8534 25.343 69.3303 25.7504 71.7909 26.2564C72.5512 26.4127 73.3096 26.5778 74.1102 26.7476ZM77.2911 57.11C77.4332 57.0744 77.5322 57.0543 77.6285 57.0247C80.4987 56.1416 83.29 55.0575 85.955 53.6576C88.0597 52.5522 90.0566 51.2822 91.8046 49.6456C92.7793 48.7331 93.6412 47.7292 94.256 46.524C94.9937 45.0777 94.9739 43.6514 94.1973 42.2283C93.7975 41.4958 93.3036 40.8348 92.7414 40.2243C91.2655 38.622 89.5142 37.3808 87.6501 36.2942C84.4272 34.4154 80.9789 33.0833 77.4209 32.0218C77.3259 31.9935 77.2246 31.9861 77.1438 31.9721C77.1007 32.0113 77.0695 32.0267 77.0595 32.051C77.0204 32.1467 76.9844 32.2441 76.9536 32.3428C75.7122 36.3237 74.1903 40.1942 72.456 43.9799C72.3064 44.3063 72.3059 44.5633 72.4594 44.8914C74.2559 48.7296 75.8476 52.6518 77.139 56.6951C77.1791 56.8208 77.2296 56.943 77.2911 57.11ZM73.1544 58.2131C72.9565 56.9689 70.2511 49.9151 69.8289 49.4993C68.8829 51.2209 67.9563 52.9542 66.985 54.6616C66.0165 56.3637 65.0033 58.0397 63.9692 59.7959C67.1027 59.4161 70.1314 58.9129 73.1544 58.2131ZM49.648 71.9959C49.7358 71.9197 49.796 71.8779 49.8436 71.8247C51.7145 69.7333 53.4631 67.5409 55.1278 65.2795C55.2234 65.1497 55.3058 65.0099 55.3928 64.8737C55.3987 64.8645 55.3928 64.846 55.3893 64.8327C55.3856 64.8185 55.3781 64.8053 55.3584 64.7596C51.5135 64.9223 47.6542 64.9037 43.6863 64.7811C45.606 67.338 47.558 69.7125 49.648 71.9959ZM29.2669 49.5946C28.6841 50.4345 26.0645 57.7186 26.0902 58.4076C29.0476 59.0591 32.0404 59.5255 35.1638 59.8757C33.0185 56.4907 31.0725 53.1013 29.2669 49.5946ZM43.7381 24.1363C43.7544 24.1714 43.7708 24.2065 43.7871 24.2416C44.7365 24.2131 45.6858 24.1768 46.6354 24.1582C47.6043 24.1391 48.5735 24.1302 49.5426 24.1302C50.4971 24.1302 51.4516 24.1395 52.4058 24.1586C53.3644 24.1778 54.3226 24.2142 55.2808 24.243C55.2945 24.2097 55.3083 24.1764 55.3219 24.1431C53.5202 21.7191 51.6199 19.3775 49.5539 17.1133C47.4728 19.3836 45.5556 21.7177 43.7381 24.1363ZM69.8208 39.4129C71.048 36.621 72.1069 33.8014 72.9901 30.9196C72.0802 30.5192 64.8278 29.2465 63.9895 29.3484C66.0637 32.6424 67.9739 36.0008 69.8208 39.4129ZM26.0635 30.8215C26.9651 33.7772 28.0106 36.6133 29.1781 39.4106C29.2479 39.3743 29.2861 39.3678 29.297 39.3469C31.0509 35.9535 32.9633 32.6525 34.9606 29.4006C34.9659 29.3918 34.9562 29.3722 34.9511 29.3586C34.9464 29.346 34.9384 29.3346 34.9076 29.2786C31.9608 29.6456 29.0203 30.1461 26.0635 30.8215Z" fill="white"/>
<path id="Vector_2" d="M58.3278 44.4319C58.323 49.3559 54.3635 53.347 49.4879 53.3421C44.6189 53.3373 40.672 49.3281 40.6831 44.3987C40.6942 39.4646 44.6442 35.4821 49.5208 35.488C54.3893 35.494 58.3324 39.4984 58.3278 44.4319Z" fill="white"/>
</g>
</svg>
