<svg width="24" height="24" viewBox="0 0 24 24" fill="none" xmlns="http://www.w3.org/2000/svg">
<path d="M15.45 15.05L16.55 14L14.45 11.9C14.6333 11.6167 14.7708 11.3167 14.8625 11C14.9542 10.6833 15 10.35 15 10C15 9.01667 14.6542 8.1875 13.9625 7.5125C13.2708 6.8375 12.45 6.5 11.5 6.5C10.55 6.5 9.72917 6.8375 9.0375 7.5125C8.34583 8.1875 8 9.01667 8 10C8 10.9833 8.34583 11.8125 9.0375 12.4875C9.72917 13.1625 10.55 13.5 11.5 13.5C11.85 13.5 12.1792 13.4542 12.4875 13.3625C12.7958 13.2708 13.1 13.1333 13.4 12.95L15.45 15.05ZM11.5 12C10.95 12 10.4792 11.8042 10.0875 11.4125C9.69583 11.0208 9.5 10.55 9.5 10C9.5 9.45 9.69583 8.97917 10.0875 8.5875C10.4792 8.19583 10.95 8 11.5 8C12.0333 8 12.5 8.19583 12.9 8.5875C13.3 8.97917 13.5 9.45 13.5 10C13.5 10.55 13.3042 11.0208 12.9125 11.4125C12.5208 11.8042 12.05 12 11.5 12ZM4 18C3.45 18 2.97917 17.8042 2.5875 17.4125C2.19583 17.0208 2 16.55 2 16V5C2 4.45 2.19583 3.97917 2.5875 3.5875C2.97917 3.19583 3.45 3 4 3H20C20.55 3 21.0208 3.19583 21.4125 3.5875C21.8042 3.97917 22 4.45 22 5V16C22 16.55 21.8042 17.0208 21.4125 17.4125C21.0208 17.8042 20.55 18 20 18H4ZM4 16H20V5H4V16ZM1 21V19H23V21H1Z" fill="white"/>
</svg>
