<svg width="22" height="20" viewBox="0 0 22 20" fill="none" xmlns="http://www.w3.org/2000/svg">
<path d="M19 6.511C19.884 6.795 20.5 7.639 20.5 8.608V12.894C20.5 14.03 19.653 14.994 18.52 15.087C18.18 15.114 17.84 15.139 17.5 15.159V18.25L14.5 15.25C13.146 15.25 11.806 15.195 10.48 15.087C10.1913 15.0637 9.91053 14.9813 9.655 14.845M19 6.511C18.8455 6.46127 18.6858 6.42939 18.524 6.416C15.8459 6.19368 13.1541 6.19368 10.476 6.416C9.345 6.51 8.5 7.473 8.5 8.608V12.894C8.5 13.731 8.96 14.474 9.655 14.845M19 6.511V4.637C19 3.016 17.848 1.611 16.24 1.402C14.1708 1.13379 12.0865 0.999513 10 1C7.885 1 5.802 1.137 3.76 1.402C2.152 1.611 1 3.016 1 4.637V10.863C1 12.484 2.152 13.889 3.76 14.098C4.337 14.173 4.917 14.238 5.5 14.292V19L9.655 14.845" stroke="white" stroke-width="1.5" stroke-linecap="round" stroke-linejoin="round"/>
</svg>
