<svg width="43" height="43" viewBox="0 0 43 43" fill="none" xmlns="http://www.w3.org/2000/svg">
<g clip-path="url(#clip0_164_2061)">
<path d="M35 0H8C3.58172 0 0 3.58172 0 8V35C0 39.4183 3.58172 43 8 43H35C39.4183 43 43 39.4183 43 35V8C43 3.58172 39.4183 0 35 0Z" fill="#1F0642"/>
<path d="M9.00115 17.0774C10.0801 17.7313 11.0988 18.3473 12.1161 18.9654C14.8311 20.6151 17.551 22.2567 20.2562 23.922C20.9292 24.3363 21.534 24.3442 22.2104 23.9299C25.8298 21.7131 29.461 19.5155 33.0884 17.3116C33.1951 17.2467 33.304 17.1853 33.4522 17.0987C33.4627 17.2371 33.4776 17.3422 33.4777 17.4473C33.4789 20.421 33.4828 23.3948 33.4772 26.3685C33.4733 28.4128 31.9057 29.9902 29.8501 29.9934C24.1151 30.0023 18.38 30.0017 12.6449 29.9939C10.5677 29.9911 9.00523 28.4162 9.00228 26.3457C8.99792 23.2833 9.00115 20.221 9.00115 17.0774Z" fill="white"/>
<path d="M21.2564 12.002C24.1238 12.0019 26.9912 11.9965 29.8586 12.0041C31.411 12.0082 32.772 12.9925 33.2694 14.4239C33.3671 14.7051 33.3375 14.8522 33.0547 15.0234C29.2061 17.3523 25.3668 19.6966 21.53 22.0449C21.3183 22.1745 21.1682 22.1797 20.9533 22.0482C17.1064 19.6921 13.256 17.3418 9.39882 15.0025C9.15256 14.8531 9.10818 14.7267 9.19499 14.4643C9.67206 13.0216 11.053 12.0086 12.616 12.0042C15.4961 11.9963 18.3763 12.002 21.2564 12.002Z" fill="white"/>
</g>
<defs>
<clipPath id="clip0_164_2061">
<rect width="43" height="43" fill="white"/>
</clipPath>
</defs>
</svg>
