<svg width="43" height="43" viewBox="0 0 43 43" fill="none" xmlns="http://www.w3.org/2000/svg">
<g clip-path="url(#clip0_164_2058)">
<path d="M35 0H8C3.58172 0 0 3.58172 0 8V35C0 39.4183 3.58172 43 8 43H35C39.4183 43 43 39.4183 43 35V8C43 3.58172 39.4183 0 35 0Z" fill="#1F0642"/>
<path d="M23.6304 27.7558C24.5022 27.5268 25.349 27.3723 26.1481 27.0807C27.9567 26.4208 29.1552 25.138 29.6163 23.1987C30.0225 21.49 30.1659 19.7829 29.3974 18.128C29.2361 17.7807 29.0451 17.4319 28.7988 17.1464C28.5534 16.8619 28.5302 16.6245 28.6383 16.271C28.9563 15.2316 28.7776 14.2112 28.4453 13.2026C28.3517 12.9187 28.1543 12.8533 27.942 12.9176C27.2367 13.1312 26.5402 13.3759 25.844 13.6199C25.6947 13.6723 25.5383 13.7459 25.4237 13.8531C24.7863 14.4497 24.0765 14.3468 23.3153 14.1732C21.5514 13.7711 19.7843 13.875 18.0357 14.2963C17.6679 14.385 17.392 14.3238 17.0554 14.1506C16.2036 13.7122 15.3322 13.2988 14.435 12.9727C13.7864 12.737 13.6575 12.8714 13.4507 13.5533C13.1537 14.5327 13.1187 15.5109 13.4162 16.5011C13.4572 16.6379 13.4185 16.8596 13.3303 16.9684C12.2023 18.3616 11.8986 19.9737 12.1547 21.7124C12.2708 22.5012 12.426 23.3004 12.6929 24.0462C13.3669 25.9295 14.8602 26.8534 16.6501 27.3578C17.2044 27.5139 17.7807 27.5876 18.2632 27.6826C18.0397 28.2791 17.8194 28.8935 17.5735 29.497C17.5325 29.5978 17.3908 29.6837 17.278 29.7213C15.6814 30.2536 14.4632 30.0446 13.5469 28.4986C13.0807 27.712 12.4382 27.1547 11.5382 26.9787C11.2866 26.9296 11.0182 26.9712 10.7575 26.9712L10.6763 27.1754C10.8478 27.3732 10.9857 27.628 11.1968 27.7586C11.9765 28.2409 12.4394 28.9749 12.7525 29.8039C13.2141 31.0257 14.1009 31.5987 15.3208 31.6757C16.0289 31.7205 16.7419 31.6839 17.5133 31.6839C17.5133 32.5837 17.5446 33.5189 17.5 34.4503C17.4778 34.9153 16.9948 35.1149 16.4772 34.9337C14.8221 34.3541 13.3087 33.5102 11.9832 32.3348C9.69566 30.3063 8.07936 27.8169 7.40893 24.7857C6.38613 20.1614 7.26793 15.9255 10.2128 12.2216C12.3737 9.5038 15.1787 7.82226 18.5404 7.22217C24.1003 6.22969 29.5987 8.60271 32.7478 13.5349C33.9059 15.3487 34.6504 17.332 34.8908 19.476C35.3334 23.4239 34.4404 27.0233 32.0304 30.186C30.3454 32.3974 28.2168 33.9695 25.6345 34.8993C24.9017 35.1631 24.498 34.8884 24.4951 34.1004C24.4909 32.9495 24.4929 31.7987 24.4942 30.6479C24.4954 29.5867 24.3844 28.5606 23.6304 27.7558Z" fill="white"/>
</g>
<defs>
<clipPath id="clip0_164_2058">
<rect width="43" height="43" fill="white"/>
</clipPath>
</defs>
</svg>
