<svg width="40" height="40" viewBox="0 0 40 40" fill="none" xmlns="http://www.w3.org/2000/svg">
<g clip-path="url(#clip0_142_3774)">
<path d="M35 0H5C2.23858 0 0 2.23858 0 5V35C0 37.7614 2.23858 40 5 40H35C37.7614 40 40 37.7614 40 35V5C40 2.23858 37.7614 0 35 0Z" fill="white"/>
<path d="M21.9818 25.8194C22.7927 25.6064 23.5804 25.4627 24.3238 25.1914C26.0062 24.5776 27.1211 23.3843 27.55 21.5803C27.9279 19.9908 28.0613 18.4028 27.3464 16.8634C27.1964 16.5402 27.0187 16.2159 26.7896 15.9503C26.5612 15.6856 26.5397 15.4647 26.6403 15.1359C26.9361 14.169 26.7699 13.2198 26.4607 12.2816C26.3737 12.0175 26.19 11.9566 25.9926 12.0164C25.3365 12.2151 24.6885 12.4428 24.0409 12.6698C23.902 12.7185 23.7565 12.7869 23.65 12.8867C23.057 13.4417 22.3967 13.3459 21.6886 13.1845C20.0478 12.8105 18.404 12.9071 16.7774 13.299C16.4352 13.3815 16.1785 13.3246 15.8655 13.1635C15.073 12.7557 14.2625 12.3711 13.4279 12.0678C12.8246 11.8485 12.7046 11.9735 12.5122 12.6078C12.2359 13.5189 12.2034 14.4289 12.4801 15.35C12.5183 15.4772 12.4823 15.6834 12.4003 15.7847C11.3509 17.0807 11.0684 18.5803 11.3066 20.1976C11.4147 20.9314 11.559 21.6748 11.8073 22.3686C12.4343 24.1205 13.8234 24.98 15.4885 25.4492C16.004 25.5944 16.5402 25.663 16.989 25.7513C16.7811 26.3062 16.5761 26.8778 16.3474 27.4391C16.3092 27.5329 16.1774 27.6128 16.0726 27.6478C14.5873 28.143 13.4541 27.9486 12.6017 26.5104C12.168 25.7787 11.5704 25.2603 10.7332 25.0966C10.4992 25.0508 10.2494 25.0896 10.0069 25.0896L9.9314 25.2795C10.0909 25.4635 10.2192 25.7006 10.4156 25.822C11.1409 26.2707 11.5715 26.9535 11.8628 27.7246C12.2922 28.8612 13.1171 29.3942 14.2518 29.4659C14.9106 29.5075 15.5739 29.4735 16.2914 29.4735C16.2914 30.3105 16.3205 31.1805 16.2791 32.0468C16.2583 32.4794 15.8091 32.6651 15.3276 32.4965C13.7879 31.9574 12.3801 31.1723 11.1471 30.079C9.01918 28.192 7.51565 25.8762 6.89199 23.0566C5.94055 18.7549 6.76083 14.8145 9.50029 11.369C11.5104 8.84083 14.1196 7.27661 17.2468 6.71838C22.4188 5.79515 27.5336 8.00262 30.4631 12.5907C31.5403 14.2779 32.2329 16.1229 32.4565 18.1173C32.8683 21.7898 32.0376 25.138 29.7957 28.0801C28.2282 30.1372 26.2482 31.5996 23.846 32.4645C23.1643 32.7099 22.7888 32.4545 22.7861 31.7214C22.7822 30.6508 22.784 29.5803 22.7853 28.5097C22.7864 27.5226 22.6831 26.5681 21.9818 25.8194Z" fill="#5600C6"/>
</g>
<defs>
<clipPath id="clip0_142_3774">
<rect width="40" height="40" fill="white"/>
</clipPath>
</defs>
</svg>
