<svg width="43" height="43" viewBox="0 0 43 43" fill="none" xmlns="http://www.w3.org/2000/svg">
<g clip-path="url(#clip0_164_2066)">
<path d="M35 0H8C3.58172 0 0 3.58172 0 8V35C0 39.4183 3.58172 43 8 43H35C39.4183 43 43 39.4183 43 35V8C43 3.58172 39.4183 0 35 0Z" fill="#1F0642"/>
<path d="M20.9936 7C28.7278 6.99948 34.9992 13.2649 35 20.9931C35.0008 28.7435 28.727 35.0037 20.9628 35C13.2347 34.9964 6.99357 28.7022 7 20.9185C7.00635 13.2641 13.3038 7.00052 20.9936 7ZM29.2278 28.1548C29.2278 27.9936 29.2278 27.8652 29.2278 27.7368C29.2276 25.8708 29.2512 24.0044 29.2139 22.1391C29.2013 21.5076 29.1095 20.8562 28.9239 20.2539C28.5068 18.9004 27.6 18.0097 26.1718 17.7546C24.6932 17.4905 23.3905 17.7859 22.4365 19.0568C22.3932 19.1145 22.3258 19.1543 22.2131 19.2507V17.9417H18.84V28.1453H22.2277C22.2277 27.9552 22.2277 27.7963 22.2277 27.6375C22.2284 25.8298 22.2206 24.0221 22.2332 22.2145C22.2395 21.3023 22.9566 20.4835 23.7975 20.3816C24.769 20.2638 25.4201 20.6715 25.6816 21.6004C25.7671 21.9042 25.8031 22.2308 25.8064 22.5475C25.8202 23.8885 25.8132 25.2297 25.8137 26.5709C25.8138 27.0918 25.8137 27.6127 25.8137 28.1548L29.2278 28.1548ZM16.913 17.9318H13.5463V28.1586H16.913V17.9318ZM17.1478 14.7494C17.1491 13.7064 16.357 12.9527 15.2556 12.9489C14.1574 12.945 13.3267 13.7017 13.3157 14.7158C13.3046 15.7353 14.1296 16.5182 15.2181 16.5213C16.3199 16.5244 17.1465 15.7654 17.1478 14.7494Z" fill="white"/>
</g>
<defs>
<clipPath id="clip0_164_2066">
<rect width="43" height="43" fill="white"/>
</clipPath>
</defs>
</svg>
