<svg width="10" height="14" viewBox="0 0 10 14" fill="none" xmlns="http://www.w3.org/2000/svg">
<path id="Vector" d="M5 14C5 14 10 9.02475 10 5.25C10 3.85761 9.47322 2.52226 8.53553 1.53769C7.59785 0.553123 6.32608 0 5 0C3.67392 0 2.40215 0.553123 1.46447 1.53769C0.526784 2.52226 1.97602e-08 3.85761 0 5.25C0 9.02475 5 14 5 14ZM5 7.875C4.33696 7.875 3.70107 7.59844 3.23223 7.10616C2.76339 6.61387 2.5 5.94619 2.5 5.25C2.5 4.55381 2.76339 3.88613 3.23223 3.39384C3.70107 2.90156 4.33696 2.625 5 2.625C5.66304 2.625 6.29893 2.90156 6.76777 3.39384C7.23661 3.88613 7.5 4.55381 7.5 5.25C7.5 5.94619 7.23661 6.61387 6.76777 7.10616C6.29893 7.59844 5.66304 7.875 5 7.875Z" fill="white"/>
</svg>
