<svg width="24" height="24" viewBox="0 0 24 24" fill="none" xmlns="http://www.w3.org/2000/svg">
<path d="M1.04999 21V18.2C1.04999 17.65 1.19165 17.1333 1.47499 16.65C1.75832 16.1667 2.14999 15.8 2.64999 15.55C3.49999 15.1167 4.45832 14.75 5.52499 14.45C6.59165 14.15 7.76665 14 9.04999 14C10.3333 14 11.5083 14.15 12.575 14.45C13.6417 14.75 14.6 15.1167 15.45 15.55C15.95 15.8 16.3417 16.1667 16.625 16.65C16.9083 17.1333 17.05 17.65 17.05 18.2V21H1.04999ZM3.04999 19H15.05V18.2C15.05 18.0167 15.0042 17.85 14.9125 17.7C14.8208 17.55 14.7 17.4333 14.55 17.35C13.95 17.05 13.1792 16.75 12.2375 16.45C11.2958 16.15 10.2333 16 9.04999 16C7.86665 16 6.80415 16.15 5.86249 16.45C4.92082 16.75 4.14999 17.05 3.54999 17.35C3.39999 17.4333 3.27915 17.55 3.18749 17.7C3.09582 17.85 3.04999 18.0167 3.04999 18.2V19ZM9.04999 13C7.94999 13 7.00832 12.6083 6.22499 11.825C5.44165 11.0417 5.04999 10.1 5.04999 9H4.79999C4.64999 9 4.52915 8.95417 4.43749 8.8625C4.34582 8.77083 4.29999 8.65 4.29999 8.5C4.29999 8.35 4.34582 8.22917 4.43749 8.1375C4.52915 8.04583 4.64999 8 4.79999 8H5.04999C5.04999 7.25 5.23332 6.575 5.59999 5.975C5.96665 5.375 6.44999 4.9 7.04999 4.55V5.5C7.04999 5.65 7.09582 5.77083 7.18749 5.8625C7.27915 5.95417 7.39999 6 7.54999 6C7.69999 6 7.82082 5.95417 7.91249 5.8625C8.00415 5.77083 8.04999 5.65 8.04999 5.5V4.15C8.19999 4.1 8.35832 4.0625 8.52499 4.0375C8.69165 4.0125 8.86665 4 9.04999 4C9.23332 4 9.40832 4.0125 9.57499 4.0375C9.74165 4.0625 9.89999 4.1 10.05 4.15V5.5C10.05 5.65 10.0958 5.77083 10.1875 5.8625C10.2792 5.95417 10.4 6 10.55 6C10.7 6 10.8208 5.95417 10.9125 5.8625C11.0042 5.77083 11.05 5.65 11.05 5.5V4.55C11.65 4.9 12.1333 5.375 12.5 5.975C12.8667 6.575 13.05 7.25 13.05 8H13.3C13.45 8 13.5708 8.04583 13.6625 8.1375C13.7542 8.22917 13.8 8.35 13.8 8.5C13.8 8.65 13.7542 8.77083 13.6625 8.8625C13.5708 8.95417 13.45 9 13.3 9H13.05C13.05 10.1 12.6583 11.0417 11.875 11.825C11.0917 12.6083 10.15 13 9.04999 13ZM9.04999 11C9.59999 11 10.0708 10.8042 10.4625 10.4125C10.8542 10.0208 11.05 9.55 11.05 9H7.04999C7.04999 9.55 7.24582 10.0208 7.63749 10.4125C8.02915 10.8042 8.49999 11 9.04999 11ZM16.55 15L16.4 14.25C16.3 14.2167 16.2042 14.1792 16.1125 14.1375C16.0208 14.0958 15.9333 14.0333 15.85 13.95L15.15 14.2L14.65 13.3L15.2 12.8V12.2L14.65 11.7L15.15 10.8L15.85 11.05C15.9167 10.9833 16 10.925 16.1 10.875C16.2 10.825 16.3 10.7833 16.4 10.75L16.55 10H17.55L17.7 10.75C17.8 10.7833 17.9 10.825 18 10.875C18.1 10.925 18.1833 10.9833 18.25 11.05L18.95 10.8L19.45 11.7L18.9 12.2V12.8L19.45 13.3L18.95 14.2L18.25 13.95C18.1667 14.0333 18.0792 14.0958 17.9875 14.1375C17.8958 14.1792 17.8 14.2167 17.7 14.25L17.55 15H16.55ZM17.05 13.25C17.25 13.25 17.425 13.175 17.575 13.025C17.725 12.875 17.8 12.7 17.8 12.5C17.8 12.3 17.725 12.125 17.575 11.975C17.425 11.825 17.25 11.75 17.05 11.75C16.85 11.75 16.675 11.825 16.525 11.975C16.375 12.125 16.3 12.3 16.3 12.5C16.3 12.7 16.375 12.875 16.525 13.025C16.675 13.175 16.85 13.25 17.05 13.25ZM18.85 10L18.65 8.95C18.5 8.9 18.3625 8.8375 18.2375 8.7625C18.1125 8.6875 18 8.6 17.9 8.5L16.85 8.85L16.15 7.65L17 6.9C16.9667 6.81667 16.95 6.75 16.95 6.7V6.3C16.95 6.25 16.9667 6.18333 17 6.1L16.15 5.35L16.85 4.15L17.9 4.5C18 4.4 18.1125 4.3125 18.2375 4.2375C18.3625 4.1625 18.5 4.1 18.65 4.05L18.85 3H20.25L20.45 4.05C20.6 4.1 20.7375 4.1625 20.8625 4.2375C20.9875 4.3125 21.1 4.4 21.2 4.5L22.25 4.15L22.95 5.35L22.1 6.1C22.1333 6.18333 22.15 6.25 22.15 6.3V6.7C22.15 6.75 22.1333 6.81667 22.1 6.9L22.95 7.65L22.25 8.85L21.2 8.5C21.1 8.6 20.9875 8.6875 20.8625 8.7625C20.7375 8.8375 20.6 8.9 20.45 8.95L20.25 10H18.85ZM19.55 7.75C19.9 7.75 20.1958 7.62917 20.4375 7.3875C20.6792 7.14583 20.8 6.85 20.8 6.5C20.8 6.15 20.6792 5.85417 20.4375 5.6125C20.1958 5.37083 19.9 5.25 19.55 5.25C19.2 5.25 18.9042 5.37083 18.6625 5.6125C18.4208 5.85417 18.3 6.15 18.3 6.5C18.3 6.85 18.4208 7.14583 18.6625 7.3875C18.9042 7.62917 19.2 7.75 19.55 7.75Z" fill="white"/>
</svg>
